<svg id="visual" viewBox="0 0 900 600" width="900" height="600" xmlns="http://www.w3.org/2000/svg" xmlns:xlink="http://www.w3.org/1999/xlink" version="1.1"><g stroke-width="1" stroke-linejoin="bevel"><path d="M439 327.9L403 312L433 347Z" fill="#0c264b" stroke="#576CBC"></path><path d="M439 327.9L412 307.9L403 312Z" fill="#163365" stroke="#576CBC"></path><path d="M439 327.9L412 292L412 307.9Z" fill="#19376d" stroke="#576CBC"></path><path d="M412 307.9L412 292L403 312Z" fill="#143162" stroke="#576CBC"></path><path d="M347 378.9L425 393.7L433 347Z" fill="#19376d" stroke="#576CBC"></path><path d="M433 347L480 376.7L439 327.9Z" fill="#0d284f" stroke="#576CBC"></path><path d="M425 393.7L449 389.6L433 347Z" fill="#143162" stroke="#576CBC"></path><path d="M425 393.7L443 395.7L449 389.6Z" fill="#0b2447" stroke="#576CBC"></path><path d="M501 384.6L480 376.7L449 389.6Z" fill="#143162" stroke="#576CBC"></path><path d="M449 389.6L480 376.7L433 347Z" fill="#0c264b" stroke="#576CBC"></path><path d="M419 216.1L394 228.1L412 292Z" fill="#0c264b" stroke="#576CBC"></path><path d="M412 292L368 267.1L403 312Z" fill="#143162" stroke="#576CBC"></path><path d="M403 312L347 378.9L433 347Z" fill="#163365" stroke="#576CBC"></path><path d="M340 375.9L347 378.9L403 312Z" fill="#0b2447" stroke="#576CBC"></path><path d="M312 322.9L340 375.9L403 312Z" fill="#143162" stroke="#576CBC"></path><path d="M501 384.6L500 373.9L480 376.7Z" fill="#0e2952" stroke="#576CBC"></path><path d="M480 376.7L500 373.9L439 327.9Z" fill="#102b56" stroke="#576CBC"></path><path d="M459 454.4L501 384.6L449 389.6Z" fill="#102b56" stroke="#576CBC"></path><path d="M368 267.1L312 322.9L403 312Z" fill="#19376d" stroke="#576CBC"></path><path d="M419 216.1L412 292L514 268Z" fill="#19376d" stroke="#576CBC"></path><path d="M412 292L394 228.1L368 267.1Z" fill="#0e2952" stroke="#576CBC"></path><path d="M368 267.1L325 277.1L312 322.9Z" fill="#0e2952" stroke="#576CBC"></path><path d="M308 362.7L319 372.7L340 375.9Z" fill="#0c264b" stroke="#576CBC"></path><path d="M340 375.9L333 405.6L347 378.9Z" fill="#163365" stroke="#576CBC"></path><path d="M343 250.3L325 277.1L368 267.1Z" fill="#173569" stroke="#576CBC"></path><path d="M394 228.1L343 250.3L368 267.1Z" fill="#0e2952" stroke="#576CBC"></path><path d="M319 372.7L333 405.6L340 375.9Z" fill="#0c264b" stroke="#576CBC"></path><path d="M347 378.9L333 405.6L425 393.7Z" fill="#173569" stroke="#576CBC"></path><path d="M425 393.7L459 454.4L443 395.7Z" fill="#173569" stroke="#576CBC"></path><path d="M312 322.9L308 362.7L340 375.9Z" fill="#0e2952" stroke="#576CBC"></path><path d="M289 408.6L305 428.6L333 405.6Z" fill="#102b56" stroke="#576CBC"></path><path d="M514 268L412 292L439 327.9Z" fill="#163365" stroke="#576CBC"></path><path d="M394 228.1L356 210.3L343 250.3Z" fill="#0b2447" stroke="#576CBC"></path><path d="M540 325.9L439 327.9L500 373.9Z" fill="#0c264b" stroke="#576CBC"></path><path d="M540 325.9L514 268L439 327.9Z" fill="#0d284f" stroke="#576CBC"></path><path d="M325 277.1L297 299L312 322.9Z" fill="#0c264b" stroke="#576CBC"></path><path d="M312 322.9L285 309L308 362.7Z" fill="#122f5e" stroke="#576CBC"></path><path d="M267 279L297 299L325 277.1Z" fill="#0d284f" stroke="#576CBC"></path><path d="M558 381.7L540 325.9L500 373.9Z" fill="#0c264b" stroke="#576CBC"></path><path d="M413 490.4L459 454.4L425 393.7Z" fill="#163365" stroke="#576CBC"></path><path d="M443 395.7L459 454.4L449 389.6Z" fill="#163365" stroke="#576CBC"></path><path d="M501 384.6L558 381.7L500 373.9Z" fill="#19376d" stroke="#576CBC"></path><path d="M267 279L285 309L297 299Z" fill="#122f5e" stroke="#576CBC"></path><path d="M297 299L285 309L312 322.9Z" fill="#112d5a" stroke="#576CBC"></path><path d="M408 186.4L356 210.3L394 228.1Z" fill="#163365" stroke="#576CBC"></path><path d="M343 250.3L299 209.4L325 277.1Z" fill="#0b2447" stroke="#576CBC"></path><path d="M305 428.6L335 439.4L333 405.6Z" fill="#122f5e" stroke="#576CBC"></path><path d="M333 405.6L335 439.4L425 393.7Z" fill="#112d5a" stroke="#576CBC"></path><path d="M333 405.6L319 372.7L289 408.6Z" fill="#163365" stroke="#576CBC"></path><path d="M540 325.9L548 299.9L514 268Z" fill="#102b56" stroke="#576CBC"></path><path d="M548 299.9L542 270L514 268Z" fill="#0d284f" stroke="#576CBC"></path><path d="M424 171.3L408 186.4L419 216.1Z" fill="#112d5a" stroke="#576CBC"></path><path d="M413 490.4L465 466.3L459 454.4Z" fill="#0b2447" stroke="#576CBC"></path><path d="M459 454.4L514 454.6L501 384.6Z" fill="#163365" stroke="#576CBC"></path><path d="M498 207.4L419 216.1L514 268Z" fill="#0d284f" stroke="#576CBC"></path><path d="M419 216.1L408 186.4L394 228.1Z" fill="#0c264b" stroke="#576CBC"></path><path d="M338 197.3L329 214.4L356 210.3Z" fill="#112d5a" stroke="#576CBC"></path><path d="M356 210.3L329 214.4L343 250.3Z" fill="#102b56" stroke="#576CBC"></path><path d="M537 234.1L515 224.3L514 268Z" fill="#163365" stroke="#576CBC"></path><path d="M289 408.6L319 372.7L308 362.7Z" fill="#0e2952" stroke="#576CBC"></path><path d="M515 224.3L498 207.4L514 268Z" fill="#102b56" stroke="#576CBC"></path><path d="M239 394.6L289 408.6L308 362.7Z" fill="#122f5e" stroke="#576CBC"></path><path d="M542 436.4L558 381.7L501 384.6Z" fill="#173569" stroke="#576CBC"></path><path d="M540 325.9L585 341L548 299.9Z" fill="#19376d" stroke="#576CBC"></path><path d="M262 427.7L308 436.4L305 428.6Z" fill="#173569" stroke="#576CBC"></path><path d="M305 428.6L308 436.4L335 439.4Z" fill="#143162" stroke="#576CBC"></path><path d="M335 439.4L413 490.4L425 393.7Z" fill="#0b2447" stroke="#576CBC"></path><path d="M340 151.6L338 197.3L356 210.3Z" fill="#19376d" stroke="#576CBC"></path><path d="M542 270L537 234.1L514 268Z" fill="#19376d" stroke="#576CBC"></path><path d="M515 224.3L514 169.3L498 207.4Z" fill="#173569" stroke="#576CBC"></path><path d="M578 281.1L537 234.1L542 270Z" fill="#0d284f" stroke="#576CBC"></path><path d="M497 466.6L514 454.6L459 454.4Z" fill="#0c264b" stroke="#576CBC"></path><path d="M465 466.3L497 466.6L459 454.4Z" fill="#0d284f" stroke="#576CBC"></path><path d="M299 209.4L343 250.3L329 214.4Z" fill="#163365" stroke="#576CBC"></path><path d="M264 224.3L267 279L325 277.1Z" fill="#173569" stroke="#576CBC"></path><path d="M239 394.6L262 427.7L289 408.6Z" fill="#143162" stroke="#576CBC"></path><path d="M373 505.4L413 490.4L335 439.4Z" fill="#143162" stroke="#576CBC"></path><path d="M465 466.3L501 506.3L497 466.6Z" fill="#0b2447" stroke="#576CBC"></path><path d="M447 157.4L424 171.3L419 216.1Z" fill="#143162" stroke="#576CBC"></path><path d="M408 186.4L340 151.6L356 210.3Z" fill="#0c264b" stroke="#576CBC"></path><path d="M311 156.6L322 200.4L338 197.3Z" fill="#0e2952" stroke="#576CBC"></path><path d="M338 197.3L322 200.4L329 214.4Z" fill="#0e2952" stroke="#576CBC"></path><path d="M552 464.4L542 436.4L514 454.6Z" fill="#102b56" stroke="#576CBC"></path><path d="M514 454.6L542 436.4L501 384.6Z" fill="#112d5a" stroke="#576CBC"></path><path d="M322 200.4L299 209.4L329 214.4Z" fill="#102b56" stroke="#576CBC"></path><path d="M618 387.6L585 341L558 381.7Z" fill="#163365" stroke="#576CBC"></path><path d="M558 381.7L585 341L540 325.9Z" fill="#173569" stroke="#576CBC"></path><path d="M548 299.9L578 281.1L542 270Z" fill="#163365" stroke="#576CBC"></path><path d="M588 289L578 281.1L548 299.9Z" fill="#173569" stroke="#576CBC"></path><path d="M264 224.3L253 280.1L267 279Z" fill="#122f5e" stroke="#576CBC"></path><path d="M267 279L253 280.1L285 309Z" fill="#102b56" stroke="#576CBC"></path><path d="M485 153.6L447 157.4L498 207.4Z" fill="#0d284f" stroke="#576CBC"></path><path d="M498 207.4L447 157.4L419 216.1Z" fill="#19376d" stroke="#576CBC"></path><path d="M424 171.3L340 151.6L408 186.4Z" fill="#0c264b" stroke="#576CBC"></path><path d="M585 341L588 289L548 299.9Z" fill="#173569" stroke="#576CBC"></path><path d="M546 164.4L515 224.3L537 234.1Z" fill="#19376d" stroke="#576CBC"></path><path d="M344 511.1L373 505.4L335 439.4Z" fill="#173569" stroke="#576CBC"></path><path d="M501 506.3L514 454.6L497 466.6Z" fill="#122f5e" stroke="#576CBC"></path><path d="M239 394.6L308 362.7L235 390.7Z" fill="#143162" stroke="#576CBC"></path><path d="M289 408.6L262 427.7L305 428.6Z" fill="#122f5e" stroke="#576CBC"></path><path d="M308 436.4L344 511.1L335 439.4Z" fill="#122f5e" stroke="#576CBC"></path><path d="M299 209.4L264 224.3L325 277.1Z" fill="#102b56" stroke="#576CBC"></path><path d="M235 390.7L308 362.7L227 382.9Z" fill="#143162" stroke="#576CBC"></path><path d="M614 261.1L537 234.1L578 281.1Z" fill="#0c264b" stroke="#576CBC"></path><path d="M546 164.4L514 169.3L515 224.3Z" fill="#0d284f" stroke="#576CBC"></path><path d="M501 506.3L552 464.4L514 454.6Z" fill="#19376d" stroke="#576CBC"></path><path d="M542 436.4L592 411.7L558 381.7Z" fill="#0d284f" stroke="#576CBC"></path><path d="M501 506.3L465 466.3L413 490.4Z" fill="#122f5e" stroke="#576CBC"></path><path d="M514 169.3L485 153.6L498 207.4Z" fill="#102b56" stroke="#576CBC"></path><path d="M227 382.9L308 362.7L285 309Z" fill="#0c264b" stroke="#576CBC"></path><path d="M239 394.6L220 454.4L262 427.7Z" fill="#163365" stroke="#576CBC"></path><path d="M583 455.4L592 411.7L542 436.4Z" fill="#163365" stroke="#576CBC"></path><path d="M627 276.1L614 261.1L588 289Z" fill="#0c264b" stroke="#576CBC"></path><path d="M284 512.3L344 511.1L308 436.4Z" fill="#143162" stroke="#576CBC"></path><path d="M437 556.3L413 490.4L373 505.4Z" fill="#0d284f" stroke="#576CBC"></path><path d="M437 556.3L501 506.3L413 490.4Z" fill="#143162" stroke="#576CBC"></path><path d="M454 131.6L424 171.3L447 157.4Z" fill="#0c264b" stroke="#576CBC"></path><path d="M347 99.6L340 151.6L424 171.3Z" fill="#143162" stroke="#576CBC"></path><path d="M322 200.4L287 183.3L299 209.4Z" fill="#0b2447" stroke="#576CBC"></path><path d="M299 209.4L287 183.3L264 224.3Z" fill="#163365" stroke="#576CBC"></path><path d="M191 294.9L227 382.9L253 280.1Z" fill="#102b56" stroke="#576CBC"></path><path d="M253 280.1L227 382.9L285 309Z" fill="#163365" stroke="#576CBC"></path><path d="M235 390.7L210 397.7L239 394.6Z" fill="#143162" stroke="#576CBC"></path><path d="M311 156.6L287 183.3L322 200.4Z" fill="#0b2447" stroke="#576CBC"></path><path d="M445 94.6L454 131.6L507 83.7Z" fill="#19376d" stroke="#576CBC"></path><path d="M485 153.6L454 131.6L447 157.4Z" fill="#0c264b" stroke="#576CBC"></path><path d="M340 151.6L311 156.6L338 197.3Z" fill="#0c264b" stroke="#576CBC"></path><path d="M318 111.7L311 156.6L340 151.6Z" fill="#19376d" stroke="#576CBC"></path><path d="M552 464.4L583 455.4L542 436.4Z" fill="#102b56" stroke="#576CBC"></path><path d="M604 472.4L583 455.4L583 515.3Z" fill="#112d5a" stroke="#576CBC"></path><path d="M601 439.6L618 387.6L592 411.7Z" fill="#0b2447" stroke="#576CBC"></path><path d="M592 411.7L618 387.6L558 381.7Z" fill="#0c264b" stroke="#576CBC"></path><path d="M627 276.1L588 289L585 341Z" fill="#173569" stroke="#576CBC"></path><path d="M588 289L614 261.1L578 281.1Z" fill="#0d284f" stroke="#576CBC"></path><path d="M594 178.3L546 164.4L537 234.1Z" fill="#163365" stroke="#576CBC"></path><path d="M514 169.3L507 83.7L485 153.6Z" fill="#143162" stroke="#576CBC"></path><path d="M207 178.4L225 238.1L264 224.3Z" fill="#0d284f" stroke="#576CBC"></path><path d="M264 224.3L225 238.1L253 280.1Z" fill="#112d5a" stroke="#576CBC"></path><path d="M207 178.4L264 224.3L287 183.3Z" fill="#0b2447" stroke="#576CBC"></path><path d="M583 455.4L601 439.6L592 411.7Z" fill="#122f5e" stroke="#576CBC"></path><path d="M601 439.6L626 383.7L618 387.6Z" fill="#173569" stroke="#576CBC"></path><path d="M618 387.6L626 383.7L585 341Z" fill="#0b2447" stroke="#576CBC"></path><path d="M227 382.9L210 397.7L235 390.7Z" fill="#143162" stroke="#576CBC"></path><path d="M290 540.1L357 541.3L344 511.1Z" fill="#0c264b" stroke="#576CBC"></path><path d="M172 327.9L210 397.7L227 382.9Z" fill="#19376d" stroke="#576CBC"></path><path d="M674 325.9L627 276.1L585 341Z" fill="#0d284f" stroke="#576CBC"></path><path d="M588 168.6L554 156.4L546 164.4Z" fill="#0e2952" stroke="#576CBC"></path><path d="M284 512.3L308 436.4L259 500.3Z" fill="#122f5e" stroke="#576CBC"></path><path d="M344 511.1L357 541.3L373 505.4Z" fill="#102b56" stroke="#576CBC"></path><path d="M594 178.3L537 234.1L614 261.1Z" fill="#0c264b" stroke="#576CBC"></path><path d="M546 164.4L554 156.4L514 169.3Z" fill="#143162" stroke="#576CBC"></path><path d="M259 500.3L308 436.4L262 427.7Z" fill="#0d284f" stroke="#576CBC"></path><path d="M357 541.3L437 556.3L373 505.4Z" fill="#163365" stroke="#576CBC"></path><path d="M501 506.3L520 537.3L552 464.4Z" fill="#143162" stroke="#576CBC"></path><path d="M225 238.1L191 294.9L253 280.1Z" fill="#0b2447" stroke="#576CBC"></path><path d="M220 454.4L259 500.3L262 427.7Z" fill="#102b56" stroke="#576CBC"></path><path d="M510 545.1L520 537.3L501 506.3Z" fill="#173569" stroke="#576CBC"></path><path d="M583 455.4L604 472.4L601 439.6Z" fill="#0e2952" stroke="#576CBC"></path><path d="M206 457.4L220 454.4L210 397.7Z" fill="#173569" stroke="#576CBC"></path><path d="M210 397.7L220 454.4L239 394.6Z" fill="#102b56" stroke="#576CBC"></path><path d="M437 556.3L510 545.1L501 506.3Z" fill="#0b2447" stroke="#576CBC"></path><path d="M629 210.3L594 178.3L614 261.1Z" fill="#122f5e" stroke="#576CBC"></path><path d="M583 515.3L583 455.4L552 464.4Z" fill="#19376d" stroke="#576CBC"></path><path d="M601 439.6L683 414.7L626 383.7Z" fill="#19376d" stroke="#576CBC"></path><path d="M583 515.3L552 464.4L520 537.3Z" fill="#0c264b" stroke="#576CBC"></path><path d="M594 178.3L588 168.6L546 164.4Z" fill="#173569" stroke="#576CBC"></path><path d="M507 83.7L454 131.6L485 153.6Z" fill="#19376d" stroke="#576CBC"></path><path d="M454 131.6L390 74.7L424 171.3Z" fill="#0e2952" stroke="#576CBC"></path><path d="M507 83.7L514 169.3L554 156.4Z" fill="#102b56" stroke="#576CBC"></path><path d="M225 238.1L182 284L191 294.9Z" fill="#0d284f" stroke="#576CBC"></path><path d="M191 294.9L172 327.9L227 382.9Z" fill="#163365" stroke="#576CBC"></path><path d="M347 99.6L318 111.7L340 151.6Z" fill="#0b2447" stroke="#576CBC"></path><path d="M232 128.7L207 178.4L287 183.3Z" fill="#102b56" stroke="#576CBC"></path><path d="M225 238.1L171 240.3L182 284Z" fill="#122f5e" stroke="#576CBC"></path><path d="M390 74.7L347 99.6L424 171.3Z" fill="#102b56" stroke="#576CBC"></path><path d="M259 574.1L290 540.1L217 548.3Z" fill="#0c264b" stroke="#576CBC"></path><path d="M259 500.3L290 540.1L284 512.3Z" fill="#0e2952" stroke="#576CBC"></path><path d="M284 512.3L290 540.1L344 511.1Z" fill="#19376d" stroke="#576CBC"></path><path d="M357 541.3L366 573.1L437 556.3Z" fill="#0e2952" stroke="#576CBC"></path><path d="M182 284L172 327.9L191 294.9Z" fill="#0b2447" stroke="#576CBC"></path><path d="M637 210.1L614 261.1L627 276.1Z" fill="#122f5e" stroke="#576CBC"></path><path d="M637 210.1L629 210.3L614 261.1Z" fill="#19376d" stroke="#576CBC"></path><path d="M594 178.3L619 167.6L588 168.6Z" fill="#0b2447" stroke="#576CBC"></path><path d="M166 425.6L206 457.4L210 397.7Z" fill="#0b2447" stroke="#576CBC"></path><path d="M220 454.4L206 457.4L259 500.3Z" fill="#122f5e" stroke="#576CBC"></path><path d="M619 167.6L567 135.6L588 168.6Z" fill="#143162" stroke="#576CBC"></path><path d="M588 168.6L567 135.6L554 156.4Z" fill="#0e2952" stroke="#576CBC"></path><path d="M333 600L366 573.1L357 541.3Z" fill="#102b56" stroke="#576CBC"></path><path d="M495 600L527 575.1L510 545.1Z" fill="#112d5a" stroke="#576CBC"></path><path d="M527 575.1L583 515.3L520 537.3Z" fill="#0b2447" stroke="#576CBC"></path><path d="M708 276L637 210.1L627 276.1Z" fill="#143162" stroke="#576CBC"></path><path d="M629 210.3L619 167.6L594 178.3Z" fill="#102b56" stroke="#576CBC"></path><path d="M429 66.7L390 74.7L445 94.6Z" fill="#0b2447" stroke="#576CBC"></path><path d="M445 94.6L390 74.7L454 131.6Z" fill="#173569" stroke="#576CBC"></path><path d="M294 72.7L232 128.7L318 111.7Z" fill="#163365" stroke="#576CBC"></path><path d="M701 390.9L674 325.9L626 383.7Z" fill="#0e2952" stroke="#576CBC"></path><path d="M626 383.7L674 325.9L585 341Z" fill="#0b2447" stroke="#576CBC"></path><path d="M232 128.7L287 183.3L311 156.6Z" fill="#102b56" stroke="#576CBC"></path><path d="M637 210.1L619 167.6L629 210.3Z" fill="#112d5a" stroke="#576CBC"></path><path d="M207 178.4L171 240.3L225 238.1Z" fill="#0e2952" stroke="#576CBC"></path><path d="M182 284L161 269L172 327.9Z" fill="#143162" stroke="#576CBC"></path><path d="M171 240.3L161 269L182 284Z" fill="#173569" stroke="#576CBC"></path><path d="M547 76.7L507 83.7L567 135.6Z" fill="#143162" stroke="#576CBC"></path><path d="M567 135.6L507 83.7L554 156.4Z" fill="#0b2447" stroke="#576CBC"></path><path d="M480 67.9L429 66.7L445 94.6Z" fill="#163365" stroke="#576CBC"></path><path d="M138 379.6L166 425.6L210 397.7Z" fill="#173569" stroke="#576CBC"></path><path d="M275 600L333 600L290 540.1Z" fill="#0e2952" stroke="#576CBC"></path><path d="M138 379.6L210 397.7L172 327.9Z" fill="#0b2447" stroke="#576CBC"></path><path d="M165 234.1L165 239.1L171 240.3Z" fill="#163365" stroke="#576CBC"></path><path d="M171 240.3L165 239.1L161 269Z" fill="#0e2952" stroke="#576CBC"></path><path d="M495 600L510 545.1L437 556.3Z" fill="#102b56" stroke="#576CBC"></path><path d="M510 545.1L527 575.1L520 537.3Z" fill="#0b2447" stroke="#576CBC"></path><path d="M207 178.4L165 234.1L171 240.3Z" fill="#0b2447" stroke="#576CBC"></path><path d="M113 247.3L120 304.9L161 269Z" fill="#143162" stroke="#576CBC"></path><path d="M416 605.1L438 600L437 556.3Z" fill="#163365" stroke="#576CBC"></path><path d="M438 600L439 600L437 556.3Z" fill="#0d284f" stroke="#576CBC"></path><path d="M507 83.7L480 67.9L445 94.6Z" fill="#0b2447" stroke="#576CBC"></path><path d="M190 133.6L192 175.6L207 178.4Z" fill="#122f5e" stroke="#576CBC"></path><path d="M207 178.4L192 175.6L165 234.1Z" fill="#102b56" stroke="#576CBC"></path><path d="M232 128.7L311 156.6L318 111.7Z" fill="#0b2447" stroke="#576CBC"></path><path d="M294 72.7L318 111.7L347 99.6Z" fill="#0e2952" stroke="#576CBC"></path><path d="M398 605.1L416 605.1L437 556.3Z" fill="#112d5a" stroke="#576CBC"></path><path d="M438 600L416 605.1L439 600Z" fill="#0d284f" stroke="#576CBC"></path><path d="M398 605.1L437 556.3L366 573.1Z" fill="#0e2952" stroke="#576CBC"></path><path d="M333 600L398 605.1L366 573.1Z" fill="#19376d" stroke="#576CBC"></path><path d="M701 517.4L683 414.7L604 472.4Z" fill="#0c264b" stroke="#576CBC"></path><path d="M604 472.4L683 414.7L601 439.6Z" fill="#122f5e" stroke="#576CBC"></path><path d="M624 542.1L604 472.4L583 515.3Z" fill="#163365" stroke="#576CBC"></path><path d="M439 600L495 600L437 556.3Z" fill="#102b56" stroke="#576CBC"></path><path d="M416 605.1L495 600L439 600Z" fill="#163365" stroke="#576CBC"></path><path d="M290 540.1L259 500.3L217 548.3Z" fill="#0d284f" stroke="#576CBC"></path><path d="M290 540.1L333 600L357 541.3Z" fill="#19376d" stroke="#576CBC"></path><path d="M120 304.9L172 327.9L161 269Z" fill="#143162" stroke="#576CBC"></path><path d="M120 304.9L138 379.6L172 327.9Z" fill="#19376d" stroke="#576CBC"></path><path d="M710 179.3L645 165.4L637 210.1Z" fill="#0d284f" stroke="#576CBC"></path><path d="M637 210.1L645 165.4L619 167.6Z" fill="#112d5a" stroke="#576CBC"></path><path d="M619 167.6L650 105.7L567 135.6Z" fill="#112d5a" stroke="#576CBC"></path><path d="M707 345.7L700 334L674 325.9Z" fill="#173569" stroke="#576CBC"></path><path d="M674 325.9L708 276L627 276.1Z" fill="#102b56" stroke="#576CBC"></path><path d="M429 66.7L410 46.9L390 74.7Z" fill="#163365" stroke="#576CBC"></path><path d="M342 6.9L294 72.7L347 99.6Z" fill="#112d5a" stroke="#576CBC"></path><path d="M469 34.9L410 46.9L429 66.7Z" fill="#102b56" stroke="#576CBC"></path><path d="M342 6.9L347 99.6L390 74.7Z" fill="#0e2952" stroke="#576CBC"></path><path d="M606 58.9L547 76.7L567 135.6Z" fill="#0b2447" stroke="#576CBC"></path><path d="M538 37.7L469 34.9L480 67.9Z" fill="#19376d" stroke="#576CBC"></path><path d="M480 67.9L469 34.9L429 66.7Z" fill="#173569" stroke="#576CBC"></path><path d="M416 605.1L515 600L495 600Z" fill="#0e2952" stroke="#576CBC"></path><path d="M495 600L515 600L527 575.1Z" fill="#102b56" stroke="#576CBC"></path><path d="M596 600L624 542.1L583 515.3Z" fill="#143162" stroke="#576CBC"></path><path d="M217 548.3L259 500.3L192 524.1Z" fill="#0b2447" stroke="#576CBC"></path><path d="M683 414.7L701 390.9L626 383.7Z" fill="#102b56" stroke="#576CBC"></path><path d="M701 390.9L707 345.7L674 325.9Z" fill="#112d5a" stroke="#576CBC"></path><path d="M700 334L708 326.9L674 325.9Z" fill="#143162" stroke="#576CBC"></path><path d="M707 345.7L708 326.9L700 334Z" fill="#143162" stroke="#576CBC"></path><path d="M192 524.1L259 500.3L206 457.4Z" fill="#0e2952" stroke="#576CBC"></path><path d="M192 524.1L206 457.4L130 512.3Z" fill="#0e2952" stroke="#576CBC"></path><path d="M180 551.3L192 524.1L130 512.3Z" fill="#173569" stroke="#576CBC"></path><path d="M550 599.1L583 515.3L527 575.1Z" fill="#102b56" stroke="#576CBC"></path><path d="M683 414.7L706 404.6L701 390.9Z" fill="#143162" stroke="#576CBC"></path><path d="M708 326.9L708 276L674 325.9Z" fill="#173569" stroke="#576CBC"></path><path d="M113 247.3L165 239.1L165 234.1Z" fill="#143162" stroke="#576CBC"></path><path d="M113 247.3L161 269L165 239.1Z" fill="#173569" stroke="#576CBC"></path><path d="M92 388.6L125 395.7L138 379.6Z" fill="#0e2952" stroke="#576CBC"></path><path d="M138 379.6L125 395.7L166 425.6Z" fill="#163365" stroke="#576CBC"></path><path d="M701 390.9L761 392.6L707 345.7Z" fill="#143162" stroke="#576CBC"></path><path d="M735 311.9L721 281.1L708 326.9Z" fill="#0e2952" stroke="#576CBC"></path><path d="M736 480.4L706 404.6L683 414.7Z" fill="#122f5e" stroke="#576CBC"></path><path d="M294 72.7L219 105.7L232 128.7Z" fill="#19376d" stroke="#576CBC"></path><path d="M232 128.7L190 133.6L207 178.4Z" fill="#0e2952" stroke="#576CBC"></path><path d="M192 175.6L139 191.4L165 234.1Z" fill="#112d5a" stroke="#576CBC"></path><path d="M596 600L550 599.1L515 600Z" fill="#0c264b" stroke="#576CBC"></path><path d="M515 600L550 599.1L527 575.1Z" fill="#143162" stroke="#576CBC"></path><path d="M219 105.7L190 133.6L232 128.7Z" fill="#163365" stroke="#576CBC"></path><path d="M190 133.6L169 160.4L192 175.6Z" fill="#19376d" stroke="#576CBC"></path><path d="M538 37.7L480 67.9L507 83.7Z" fill="#102b56" stroke="#576CBC"></path><path d="M219 105.7L217 103.7L190 133.6Z" fill="#0e2952" stroke="#576CBC"></path><path d="M282 59.9L217 103.7L219 105.7Z" fill="#112d5a" stroke="#576CBC"></path><path d="M301 11.9L282 59.9L294 72.7Z" fill="#173569" stroke="#576CBC"></path><path d="M294 72.7L282 59.9L219 105.7Z" fill="#122f5e" stroke="#576CBC"></path><path d="M342 6.9L390 74.7L370 0Z" fill="#122f5e" stroke="#576CBC"></path><path d="M191 600L275 600L259 574.1Z" fill="#122f5e" stroke="#576CBC"></path><path d="M259 574.1L275 600L290 540.1Z" fill="#0e2952" stroke="#576CBC"></path><path d="M333 600L275 600L398 605.1Z" fill="#173569" stroke="#576CBC"></path><path d="M122 136.4L159 165.3L169 160.4Z" fill="#173569" stroke="#576CBC"></path><path d="M169 160.4L159 165.3L192 175.6Z" fill="#19376d" stroke="#576CBC"></path><path d="M180 119.7L169 160.4L190 133.6Z" fill="#0d284f" stroke="#576CBC"></path><path d="M735 311.9L708 326.9L707 345.7Z" fill="#19376d" stroke="#576CBC"></path><path d="M708 326.9L721 281.1L708 276Z" fill="#143162" stroke="#576CBC"></path><path d="M708 276L716 237.3L637 210.1Z" fill="#122f5e" stroke="#576CBC"></path><path d="M159 165.3L139 191.4L192 175.6Z" fill="#143162" stroke="#576CBC"></path><path d="M721 281.1L716 237.3L708 276Z" fill="#102b56" stroke="#576CBC"></path><path d="M139 191.4L113 247.3L165 234.1Z" fill="#143162" stroke="#576CBC"></path><path d="M86 329L92 388.6L138 379.6Z" fill="#19376d" stroke="#576CBC"></path><path d="M192 60.9L180 119.7L217 103.7Z" fill="#0c264b" stroke="#576CBC"></path><path d="M217 103.7L180 119.7L190 133.6Z" fill="#122f5e" stroke="#576CBC"></path><path d="M159 165.3L122 136.4L139 191.4Z" fill="#163365" stroke="#576CBC"></path><path d="M547 76.7L538 37.7L507 83.7Z" fill="#0c264b" stroke="#576CBC"></path><path d="M606 58.9L538 37.7L547 76.7Z" fill="#0e2952" stroke="#576CBC"></path><path d="M650 105.7L619 167.6L645 165.4Z" fill="#102b56" stroke="#576CBC"></path><path d="M787 341.7L735 311.9L707 345.7Z" fill="#112d5a" stroke="#576CBC"></path><path d="M721 281.1L767 236.3L716 237.3Z" fill="#0b2447" stroke="#576CBC"></path><path d="M192 524.1L180 551.3L217 548.3Z" fill="#122f5e" stroke="#576CBC"></path><path d="M217 548.3L191 600L259 574.1Z" fill="#173569" stroke="#576CBC"></path><path d="M130 512.3L206 457.4L113 483.4Z" fill="#173569" stroke="#576CBC"></path><path d="M550 599.1L596 600L583 515.3Z" fill="#173569" stroke="#576CBC"></path><path d="M624 542.1L701 517.4L604 472.4Z" fill="#143162" stroke="#576CBC"></path><path d="M416 605.1L596 600L515 600Z" fill="#163365" stroke="#576CBC"></path><path d="M691 108.7L650 105.7L645 165.4Z" fill="#163365" stroke="#576CBC"></path><path d="M86 329L138 379.6L120 304.9Z" fill="#173569" stroke="#576CBC"></path><path d="M113 483.4L206 457.4L166 425.6Z" fill="#112d5a" stroke="#576CBC"></path><path d="M51 296.1L86 329L120 304.9Z" fill="#102b56" stroke="#576CBC"></path><path d="M713 147.4L710 179.3L766 187.4Z" fill="#0e2952" stroke="#576CBC"></path><path d="M716 237.3L710 179.3L637 210.1Z" fill="#102b56" stroke="#576CBC"></path><path d="M464 0L412 0L469 34.9Z" fill="#0c264b" stroke="#576CBC"></path><path d="M469 34.9L412 0L410 46.9Z" fill="#102b56" stroke="#576CBC"></path><path d="M650 105.7L606 58.9L567 135.6Z" fill="#0c264b" stroke="#576CBC"></path><path d="M412 0L388 0L410 46.9Z" fill="#173569" stroke="#576CBC"></path><path d="M370 0L390 74.7L410 46.9Z" fill="#173569" stroke="#576CBC"></path><path d="M230 25.9L192 60.9L217 103.7Z" fill="#19376d" stroke="#576CBC"></path><path d="M388 0L370 0L410 46.9Z" fill="#122f5e" stroke="#576CBC"></path><path d="M565 3.9L464 0L538 37.7Z" fill="#173569" stroke="#576CBC"></path><path d="M538 37.7L464 0L469 34.9Z" fill="#0c264b" stroke="#576CBC"></path><path d="M113 483.4L166 425.6L93 452.4Z" fill="#0c264b" stroke="#576CBC"></path><path d="M658 589.1L665 561.3L624 542.1Z" fill="#0e2952" stroke="#576CBC"></path><path d="M706 404.6L761 392.6L701 390.9Z" fill="#0e2952" stroke="#576CBC"></path><path d="M93 452.4L166 425.6L125 395.7Z" fill="#173569" stroke="#576CBC"></path><path d="M309 0L301 11.9L342 6.9Z" fill="#112d5a" stroke="#576CBC"></path><path d="M342 6.9L301 11.9L294 72.7Z" fill="#163365" stroke="#576CBC"></path><path d="M665 561.3L701 517.4L624 542.1Z" fill="#102b56" stroke="#576CBC"></path><path d="M596 600L625 600L624 542.1Z" fill="#102b56" stroke="#576CBC"></path><path d="M416 605.1L625 600L596 600Z" fill="#102b56" stroke="#576CBC"></path><path d="M86 329L77 381.7L92 388.6Z" fill="#0c264b" stroke="#576CBC"></path><path d="M92 388.6L93 452.4L125 395.7Z" fill="#122f5e" stroke="#576CBC"></path><path d="M38 423.7L93 452.4L92 388.6Z" fill="#163365" stroke="#576CBC"></path><path d="M108 600L155 566.1L130 512.3Z" fill="#0d284f" stroke="#576CBC"></path><path d="M370 0L309 0L342 6.9Z" fill="#163365" stroke="#576CBC"></path><path d="M230 25.9L217 103.7L282 59.9Z" fill="#0b2447" stroke="#576CBC"></path><path d="M716 518.1L711 516.3L701 517.4Z" fill="#0b2447" stroke="#576CBC"></path><path d="M701 517.4L736 480.4L683 414.7Z" fill="#112d5a" stroke="#576CBC"></path><path d="M764 204.3L710 179.3L716 237.3Z" fill="#112d5a" stroke="#576CBC"></path><path d="M710 179.3L713 147.4L645 165.4Z" fill="#0b2447" stroke="#576CBC"></path><path d="M650 105.7L702 40.9L606 58.9Z" fill="#0e2952" stroke="#576CBC"></path><path d="M776 431.4L761 392.6L706 404.6Z" fill="#19376d" stroke="#576CBC"></path><path d="M779 271.1L767 236.3L721 281.1Z" fill="#19376d" stroke="#576CBC"></path><path d="M183 600L191 600L180 551.3Z" fill="#0b2447" stroke="#576CBC"></path><path d="M180 551.3L191 600L217 548.3Z" fill="#0b2447" stroke="#576CBC"></path><path d="M275 600L191 600L398 605.1Z" fill="#112d5a" stroke="#576CBC"></path><path d="M285 0L282 59.9L301 11.9Z" fill="#143162" stroke="#576CBC"></path><path d="M180 119.7L122 136.4L169 160.4Z" fill="#173569" stroke="#576CBC"></path><path d="M139 191.4L70 230.3L113 247.3Z" fill="#163365" stroke="#576CBC"></path><path d="M130 512.3L155 566.1L180 551.3Z" fill="#0d284f" stroke="#576CBC"></path><path d="M78 508.3L130 512.3L113 483.4Z" fill="#143162" stroke="#576CBC"></path><path d="M122 114.6L122 136.4L180 119.7Z" fill="#19376d" stroke="#576CBC"></path><path d="M51 296.1L63 348.9L86 329Z" fill="#0c264b" stroke="#576CBC"></path><path d="M711 516.3L736 480.4L701 517.4Z" fill="#112d5a" stroke="#576CBC"></path><path d="M665 561.3L716 518.1L701 517.4Z" fill="#102b56" stroke="#576CBC"></path><path d="M711 516.3L716 518.1L736 480.4Z" fill="#0e2952" stroke="#576CBC"></path><path d="M749 527.3L716 518.1L713 600Z" fill="#0e2952" stroke="#576CBC"></path><path d="M86 329L63 348.9L77 381.7Z" fill="#0e2952" stroke="#576CBC"></path><path d="M73 505.4L113 483.4L93 452.4Z" fill="#173569" stroke="#576CBC"></path><path d="M51 296.1L120 304.9L113 247.3Z" fill="#163365" stroke="#576CBC"></path><path d="M713 147.4L691 108.7L645 165.4Z" fill="#173569" stroke="#576CBC"></path><path d="M625 600L658 589.1L624 542.1Z" fill="#112d5a" stroke="#576CBC"></path><path d="M416 605.1L647 600L625 600Z" fill="#163365" stroke="#576CBC"></path><path d="M625 600L647 600L658 589.1Z" fill="#163365" stroke="#576CBC"></path><path d="M155 566.1L183 600L180 551.3Z" fill="#173569" stroke="#576CBC"></path><path d="M191 600L183 600L398 605.1Z" fill="#163365" stroke="#576CBC"></path><path d="M309 0L285 0L301 11.9Z" fill="#0c264b" stroke="#576CBC"></path><path d="M713 147.4L696 109.7L691 108.7Z" fill="#0d284f" stroke="#576CBC"></path><path d="M676 0L602 12.9L606 58.9Z" fill="#102b56" stroke="#576CBC"></path><path d="M285 0L230 25.9L282 59.9Z" fill="#19376d" stroke="#576CBC"></path><path d="M606 58.9L565 3.9L538 37.7Z" fill="#0e2952" stroke="#576CBC"></path><path d="M602 12.9L565 3.9L606 58.9Z" fill="#102b56" stroke="#576CBC"></path><path d="M47 191.4L70 230.3L139 191.4Z" fill="#0b2447" stroke="#576CBC"></path><path d="M779 271.1L721 281.1L735 311.9Z" fill="#0e2952" stroke="#576CBC"></path><path d="M713 147.4L729 101.6L696 109.7Z" fill="#122f5e" stroke="#576CBC"></path><path d="M124 83.7L122 114.6L180 119.7Z" fill="#122f5e" stroke="#576CBC"></path><path d="M122 136.4L47 191.4L139 191.4Z" fill="#0c264b" stroke="#576CBC"></path><path d="M124 83.7L180 119.7L192 60.9Z" fill="#0d284f" stroke="#576CBC"></path><path d="M44 279L51 296.1L113 247.3Z" fill="#173569" stroke="#576CBC"></path><path d="M786 290L779 271.1L735 311.9Z" fill="#173569" stroke="#576CBC"></path><path d="M702 40.9L650 105.7L691 108.7Z" fill="#112d5a" stroke="#576CBC"></path><path d="M602 12.9L580 0L565 3.9Z" fill="#112d5a" stroke="#576CBC"></path><path d="M565 3.9L580 0L464 0Z" fill="#122f5e" stroke="#576CBC"></path><path d="M767 236.3L764 204.3L716 237.3Z" fill="#19376d" stroke="#576CBC"></path><path d="M795 218.4L764 204.3L767 236.3Z" fill="#102b56" stroke="#576CBC"></path><path d="M805 335L787 341.7L817 348.9Z" fill="#173569" stroke="#576CBC"></path><path d="M761 392.6L787 341.7L707 345.7Z" fill="#143162" stroke="#576CBC"></path><path d="M716 518.1L748 498.4L736 480.4Z" fill="#112d5a" stroke="#576CBC"></path><path d="M736 480.4L776 431.4L706 404.6Z" fill="#19376d" stroke="#576CBC"></path><path d="M749 527.3L748 498.4L716 518.1Z" fill="#173569" stroke="#576CBC"></path><path d="M787 341.7L786 290L735 311.9Z" fill="#0c264b" stroke="#576CBC"></path><path d="M779 271.1L786 253.1L767 236.3Z" fill="#163365" stroke="#576CBC"></path><path d="M768 485.3L776 431.4L736 480.4Z" fill="#163365" stroke="#576CBC"></path><path d="M70 230.3L44 279L113 247.3Z" fill="#19376d" stroke="#576CBC"></path><path d="M0 363.9L77 381.7L63 348.9Z" fill="#143162" stroke="#576CBC"></path><path d="M26 275.1L44 279L70 230.3Z" fill="#143162" stroke="#576CBC"></path><path d="M677 -4.1L594 0L602 12.9Z" fill="#163365" stroke="#576CBC"></path><path d="M602 12.9L594 0L580 0Z" fill="#0c264b" stroke="#576CBC"></path><path d="M823 310L786 253.1L786 290Z" fill="#122f5e" stroke="#576CBC"></path><path d="M786 290L786 253.1L779 271.1Z" fill="#102b56" stroke="#576CBC"></path><path d="M764 204.3L766 187.4L710 179.3Z" fill="#0e2952" stroke="#576CBC"></path><path d="M795 218.4L766 187.4L764 204.3Z" fill="#143162" stroke="#576CBC"></path><path d="M73 505.4L93 452.4L38 423.7Z" fill="#0b2447" stroke="#576CBC"></path><path d="M73 505.4L78 508.3L113 483.4Z" fill="#102b56" stroke="#576CBC"></path><path d="M155 566.1L108 600L183 600Z" fill="#102b56" stroke="#576CBC"></path><path d="M92 388.6L77 381.7L38 423.7Z" fill="#112d5a" stroke="#576CBC"></path><path d="M143 0L124 83.7L192 60.9Z" fill="#112d5a" stroke="#576CBC"></path><path d="M60 105.6L47 191.4L122 136.4Z" fill="#102b56" stroke="#576CBC"></path><path d="M771 508.1L768 485.3L748 498.4Z" fill="#0b2447" stroke="#576CBC"></path><path d="M748 498.4L768 485.3L736 480.4Z" fill="#143162" stroke="#576CBC"></path><path d="M716 518.1L665 561.3L713 600Z" fill="#173569" stroke="#576CBC"></path><path d="M38 423.7L77 381.7L0 398.7Z" fill="#0c264b" stroke="#576CBC"></path><path d="M78 508.3L65 519.3L130 512.3Z" fill="#0d284f" stroke="#576CBC"></path><path d="M766 187.4L747 132.7L713 147.4Z" fill="#122f5e" stroke="#576CBC"></path><path d="M696 109.7L715 83.6L691 108.7Z" fill="#0d284f" stroke="#576CBC"></path><path d="M713 600L665 561.3L658 589.1Z" fill="#163365" stroke="#576CBC"></path><path d="M747 132.7L729 101.6L713 147.4Z" fill="#112d5a" stroke="#576CBC"></path><path d="M729 101.6L715 83.6L696 109.7Z" fill="#143162" stroke="#576CBC"></path><path d="M808 388.9L787 341.7L761 392.6Z" fill="#143162" stroke="#576CBC"></path><path d="M787 341.7L805 335L786 290Z" fill="#163365" stroke="#576CBC"></path><path d="M794 428.7L761 392.6L776 431.4Z" fill="#0e2952" stroke="#576CBC"></path><path d="M0 363.9L63 348.9L51 296.1Z" fill="#0b2447" stroke="#576CBC"></path><path d="M796 471.6L794 428.7L776 431.4Z" fill="#0c264b" stroke="#576CBC"></path><path d="M796 471.6L776 431.4L768 485.3Z" fill="#122f5e" stroke="#576CBC"></path><path d="M285 0L208 0L230 25.9Z" fill="#122f5e" stroke="#576CBC"></path><path d="M230 25.9L196 0L192 60.9Z" fill="#163365" stroke="#576CBC"></path><path d="M0 266L26 275.1L0 228.3Z" fill="#102b56" stroke="#576CBC"></path><path d="M44 279L26 275.1L51 296.1Z" fill="#0e2952" stroke="#576CBC"></path><path d="M94 97.6L122 136.4L122 114.6Z" fill="#102b56" stroke="#576CBC"></path><path d="M760 98.6L726 85.9L729 101.6Z" fill="#0b2447" stroke="#576CBC"></path><path d="M729 101.6L726 85.9L715 83.6Z" fill="#0d284f" stroke="#576CBC"></path><path d="M715 83.6L702 40.9L691 108.7Z" fill="#143162" stroke="#576CBC"></path><path d="M801 140.6L760 98.6L747 132.7Z" fill="#102b56" stroke="#576CBC"></path><path d="M747 132.7L760 98.6L729 101.6Z" fill="#163365" stroke="#576CBC"></path><path d="M786 253.1L795 218.4L767 236.3Z" fill="#143162" stroke="#576CBC"></path><path d="M858 258.3L795 218.4L786 253.1Z" fill="#173569" stroke="#576CBC"></path><path d="M794 428.7L808 388.9L761 392.6Z" fill="#112d5a" stroke="#576CBC"></path><path d="M749 527.3L771 508.1L748 498.4Z" fill="#143162" stroke="#576CBC"></path><path d="M794 428.7L828 424.6L808 388.9Z" fill="#102b56" stroke="#576CBC"></path><path d="M208 0L196 0L230 25.9Z" fill="#0b2447" stroke="#576CBC"></path><path d="M124 83.7L94 97.6L122 114.6Z" fill="#0b2447" stroke="#576CBC"></path><path d="M60 105.6L94 97.6L67 64.9Z" fill="#102b56" stroke="#576CBC"></path><path d="M0 512.1L65 519.3L73 505.4Z" fill="#163365" stroke="#576CBC"></path><path d="M73 505.4L65 519.3L78 508.3Z" fill="#0e2952" stroke="#576CBC"></path><path d="M416 605.1L713 600L647 600Z" fill="#163365" stroke="#576CBC"></path><path d="M647 600L713 600L658 589.1Z" fill="#163365" stroke="#576CBC"></path><path d="M749 527.3L771 600L771 508.1Z" fill="#0b2447" stroke="#576CBC"></path><path d="M808 388.9L817 348.9L787 341.7Z" fill="#0b2447" stroke="#576CBC"></path><path d="M805 335L823 310L786 290Z" fill="#0e2952" stroke="#576CBC"></path><path d="M839 534.3L796 471.6L771 508.1Z" fill="#112d5a" stroke="#576CBC"></path><path d="M771 508.1L796 471.6L768 485.3Z" fill="#19376d" stroke="#576CBC"></path><path d="M808 388.9L848 341.7L817 348.9Z" fill="#0c264b" stroke="#576CBC"></path><path d="M726 85.9L702 40.9L715 83.6Z" fill="#102b56" stroke="#576CBC"></path><path d="M817 348.9L823 310L805 335Z" fill="#173569" stroke="#576CBC"></path><path d="M65 519.3L108 600L130 512.3Z" fill="#163365" stroke="#576CBC"></path><path d="M183 600L49 601.1L398 605.1Z" fill="#143162" stroke="#576CBC"></path><path d="M801 140.6L747 132.7L766 187.4Z" fill="#102b56" stroke="#576CBC"></path><path d="M726 85.9L779 32.9L702 40.9Z" fill="#19376d" stroke="#576CBC"></path><path d="M801 140.6L766 187.4L795 218.4Z" fill="#173569" stroke="#576CBC"></path><path d="M26 275.1L0 363.9L51 296.1Z" fill="#0b2447" stroke="#576CBC"></path><path d="M38 423.7L0 453.4L73 505.4Z" fill="#0d284f" stroke="#576CBC"></path><path d="M0 266L0 363.9L26 275.1Z" fill="#19376d" stroke="#576CBC"></path><path d="M677 -4.1L676 0L708 0Z" fill="#0c264b" stroke="#576CBC"></path><path d="M702 40.9L676 0L606 58.9Z" fill="#0b2447" stroke="#576CBC"></path><path d="M0 228.3L70 230.3L0 225.1Z" fill="#163365" stroke="#576CBC"></path><path d="M0 228.3L26 275.1L70 230.3Z" fill="#163365" stroke="#576CBC"></path><path d="M0 363.9L0 398.7L77 381.7Z" fill="#0b2447" stroke="#576CBC"></path><path d="M65 519.3L81 600L108 600Z" fill="#143162" stroke="#576CBC"></path><path d="M67 64.9L94 97.6L124 83.7Z" fill="#122f5e" stroke="#576CBC"></path><path d="M94 97.6L60 105.6L122 136.4Z" fill="#143162" stroke="#576CBC"></path><path d="M796 471.6L828 424.6L794 428.7Z" fill="#122f5e" stroke="#576CBC"></path><path d="M817 348.9L848 341.7L823 310Z" fill="#0c264b" stroke="#576CBC"></path><path d="M876 442.6L828 424.6L796 471.6Z" fill="#122f5e" stroke="#576CBC"></path><path d="M708 0L676 0L702 40.9Z" fill="#122f5e" stroke="#576CBC"></path><path d="M676 0L677 -4.1L602 12.9Z" fill="#143162" stroke="#576CBC"></path><path d="M594 0L677 -4.1L580 0Z" fill="#143162" stroke="#576CBC"></path><path d="M580 0L677 -4.1L464 0Z" fill="#143162" stroke="#576CBC"></path><path d="M464 0L677 -4.1L412 0Z" fill="#163365" stroke="#576CBC"></path><path d="M412 0L677 -4.1L388 0Z" fill="#173569" stroke="#576CBC"></path><path d="M388 0L677 -4.1L370 0Z" fill="#0d284f" stroke="#576CBC"></path><path d="M370 0L677 -4.1L309 0Z" fill="#112d5a" stroke="#576CBC"></path><path d="M309 0L677 -4.1L285 0Z" fill="#19376d" stroke="#576CBC"></path><path d="M285 0L677 -4.1L208 0Z" fill="#173569" stroke="#576CBC"></path><path d="M208 0L677 -4.1L196 0Z" fill="#0e2952" stroke="#576CBC"></path><path d="M0 266L-3 410.6L0 363.9Z" fill="#173569" stroke="#576CBC"></path><path d="M0 363.9L-3 410.6L0 398.7Z" fill="#0b2447" stroke="#576CBC"></path><path d="M0 398.7L-3 410.6L38 423.7Z" fill="#122f5e" stroke="#576CBC"></path><path d="M0 225.1L70 230.3L47 191.4Z" fill="#0b2447" stroke="#576CBC"></path><path d="M0 266L0 228.3L-3 410.6Z" fill="#0d284f" stroke="#576CBC"></path><path d="M677 -4.1L143 0L196 0Z" fill="#19376d" stroke="#576CBC"></path><path d="M196 0L143 0L192 60.9Z" fill="#0d284f" stroke="#576CBC"></path><path d="M0 215.4L0 225.1L47 191.4Z" fill="#0e2952" stroke="#576CBC"></path><path d="M0 228.3L0 225.1L-3 410.6Z" fill="#173569" stroke="#576CBC"></path><path d="M809 140.4L801 140.6L795 218.4Z" fill="#0d284f" stroke="#576CBC"></path><path d="M763 0L708 0L702 40.9Z" fill="#0b2447" stroke="#576CBC"></path><path d="M69 600L81 600L65 519.3Z" fill="#173569" stroke="#576CBC"></path><path d="M108 600L49 601.1L183 600Z" fill="#122f5e" stroke="#576CBC"></path><path d="M0 170.6L0 215.4L47 191.4Z" fill="#163365" stroke="#576CBC"></path><path d="M0 225.1L0 215.4L-3 410.6Z" fill="#19376d" stroke="#576CBC"></path><path d="M828 424.6L848 341.7L808 388.9Z" fill="#173569" stroke="#576CBC"></path><path d="M823 310L858 258.3L786 253.1Z" fill="#122f5e" stroke="#576CBC"></path><path d="M-3 410.6L0 449.6L38 423.7Z" fill="#0e2952" stroke="#576CBC"></path><path d="M713 600L760 594.1L749 527.3Z" fill="#143162" stroke="#576CBC"></path><path d="M-3 410.6L0 453.4L0 449.6Z" fill="#163365" stroke="#576CBC"></path><path d="M0 449.6L0 453.4L38 423.7Z" fill="#112d5a" stroke="#576CBC"></path><path d="M864 156.4L809 140.4L795 218.4Z" fill="#0d284f" stroke="#576CBC"></path><path d="M801 140.6L813 88.7L760 98.6Z" fill="#163365" stroke="#576CBC"></path><path d="M49 601.1L69 600L65 519.3Z" fill="#122f5e" stroke="#576CBC"></path><path d="M81 600L49 601.1L108 600Z" fill="#102b56" stroke="#576CBC"></path><path d="M87 36.9L67 64.9L124 83.7Z" fill="#112d5a" stroke="#576CBC"></path><path d="M0 131.7L0 170.6L47 191.4Z" fill="#0c264b" stroke="#576CBC"></path><path d="M143 0L87 36.9L124 83.7Z" fill="#173569" stroke="#576CBC"></path><path d="M779 32.9L726 85.9L760 98.6Z" fill="#0b2447" stroke="#576CBC"></path><path d="M713 600L771 600L760 594.1Z" fill="#0d284f" stroke="#576CBC"></path><path d="M760 594.1L771 600L749 527.3Z" fill="#173569" stroke="#576CBC"></path><path d="M416 605.1L771 600L713 600Z" fill="#102b56" stroke="#576CBC"></path><path d="M66 26.9L78 40.7L87 36.9Z" fill="#0c264b" stroke="#576CBC"></path><path d="M87 36.9L78 40.7L67 64.9Z" fill="#0b2447" stroke="#576CBC"></path><path d="M0 131.7L60 105.6L0 73.9Z" fill="#143162" stroke="#576CBC"></path><path d="M0 131.7L47 191.4L60 105.6Z" fill="#143162" stroke="#576CBC"></path><path d="M0 215.4L0 170.6L-3 410.6Z" fill="#122f5e" stroke="#576CBC"></path><path d="M900 318.9L858 258.3L823 310Z" fill="#102b56" stroke="#576CBC"></path><path d="M-3 410.6L0 512.1L0 453.4Z" fill="#0e2952" stroke="#576CBC"></path><path d="M0 453.4L0 512.1L73 505.4Z" fill="#102b56" stroke="#576CBC"></path><path d="M4 556.1L49 601.1L65 519.3Z" fill="#0e2952" stroke="#576CBC"></path><path d="M69 600L49 601.1L81 600Z" fill="#112d5a" stroke="#576CBC"></path><path d="M0 73.9L60 105.6L67 64.9Z" fill="#173569" stroke="#576CBC"></path><path d="M0 170.6L0 131.7L-3 410.6Z" fill="#0b2447" stroke="#576CBC"></path><path d="M81 0L66 26.9L87 36.9Z" fill="#0b2447" stroke="#576CBC"></path><path d="M78 40.7L66 26.9L67 64.9Z" fill="#143162" stroke="#576CBC"></path><path d="M820 80.7L813 88.7L894 120.6Z" fill="#0e2952" stroke="#576CBC"></path><path d="M809 140.4L813 88.7L801 140.6Z" fill="#122f5e" stroke="#576CBC"></path><path d="M771 600L839 534.3L771 508.1Z" fill="#0d284f" stroke="#576CBC"></path><path d="M828 424.6L900 403.7L848 341.7Z" fill="#0b2447" stroke="#576CBC"></path><path d="M900 253.1L879 231.1L858 258.3Z" fill="#102b56" stroke="#576CBC"></path><path d="M0 512.1L4 556.1L65 519.3Z" fill="#163365" stroke="#576CBC"></path><path d="M813 88.7L779 32.9L760 98.6Z" fill="#0c264b" stroke="#576CBC"></path><path d="M-3 410.6L0 551.3L0 512.1Z" fill="#0c264b" stroke="#576CBC"></path><path d="M0 512.1L0 551.3L4 556.1Z" fill="#0e2952" stroke="#576CBC"></path><path d="M677 -4.1L81 0L143 0Z" fill="#143162" stroke="#576CBC"></path><path d="M143 0L81 0L87 36.9Z" fill="#0b2447" stroke="#576CBC"></path><path d="M66 26.9L0 73.9L67 64.9Z" fill="#143162" stroke="#576CBC"></path><path d="M865 505.3L876 442.6L796 471.6Z" fill="#102b56" stroke="#576CBC"></path><path d="M900 318.9L823 310L848 341.7Z" fill="#0c264b" stroke="#576CBC"></path><path d="M858 258.3L879 231.1L795 218.4Z" fill="#0d284f" stroke="#576CBC"></path><path d="M864 156.4L813 88.7L809 140.4Z" fill="#0b2447" stroke="#576CBC"></path><path d="M813 88.7L820 80.7L779 32.9Z" fill="#112d5a" stroke="#576CBC"></path><path d="M708 0L763 0L677 -4.1Z" fill="#0c264b" stroke="#576CBC"></path><path d="M779 32.9L763 0L702 40.9Z" fill="#112d5a" stroke="#576CBC"></path><path d="M767 0L763 0L779 32.9Z" fill="#143162" stroke="#576CBC"></path><path d="M879 231.1L864 156.4L795 218.4Z" fill="#112d5a" stroke="#576CBC"></path><path d="M839 534.3L865 505.3L796 471.6Z" fill="#0d284f" stroke="#576CBC"></path><path d="M806 0L767 0L779 32.9Z" fill="#122f5e" stroke="#576CBC"></path><path d="M763 0L767 0L677 -4.1Z" fill="#0d284f" stroke="#576CBC"></path><path d="M900 403.7L828 424.6L876 442.6Z" fill="#112d5a" stroke="#576CBC"></path><path d="M900 403.7L900 335L848 341.7Z" fill="#102b56" stroke="#576CBC"></path><path d="M879 231.1L900 206.3L864 156.4Z" fill="#102b56" stroke="#576CBC"></path><path d="M900 335L900 318.9L848 341.7Z" fill="#112d5a" stroke="#576CBC"></path><path d="M43 0L0 73.9L66 26.9Z" fill="#102b56" stroke="#576CBC"></path><path d="M0 131.7L0 73.9L-3 410.6Z" fill="#173569" stroke="#576CBC"></path><path d="M900 467.4L900 403.7L876 442.6Z" fill="#0d284f" stroke="#576CBC"></path><path d="M900 318.9L900 253.1L858 258.3Z" fill="#19376d" stroke="#576CBC"></path><path d="M900 540.1L899 502.4L865 505.3Z" fill="#0c264b" stroke="#576CBC"></path><path d="M771 600L830 600L839 534.3Z" fill="#112d5a" stroke="#576CBC"></path><path d="M416 605.1L830 600L771 600Z" fill="#0b2447" stroke="#576CBC"></path><path d="M-3 410.6L0 600L0 551.3Z" fill="#0b2447" stroke="#576CBC"></path><path d="M0 551.3L0 600L4 556.1Z" fill="#0d284f" stroke="#576CBC"></path><path d="M4 556.1L0 600L49 601.1Z" fill="#0b2447" stroke="#576CBC"></path><path d="M677 -4.1L43 0L81 0Z" fill="#0b2447" stroke="#576CBC"></path><path d="M81 0L43 0L66 26.9Z" fill="#122f5e" stroke="#576CBC"></path><path d="M900 253.1L900 208.4L879 231.1Z" fill="#173569" stroke="#576CBC"></path><path d="M859 65.9L806 0L820 80.7Z" fill="#112d5a" stroke="#576CBC"></path><path d="M900 208.4L900 206.3L879 231.1Z" fill="#19376d" stroke="#576CBC"></path><path d="M830 600L848 583.1L839 534.3Z" fill="#102b56" stroke="#576CBC"></path><path d="M900 472.6L900 467.4L876 442.6Z" fill="#112d5a" stroke="#576CBC"></path><path d="M900 472.6L876 442.6L865 505.3Z" fill="#102b56" stroke="#576CBC"></path><path d="M900 478.3L900 472.6L865 505.3Z" fill="#102b56" stroke="#576CBC"></path><path d="M899 502.4L900 478.3L865 505.3Z" fill="#112d5a" stroke="#576CBC"></path><path d="M830 600L850 600L848 583.1Z" fill="#0c264b" stroke="#576CBC"></path><path d="M900 540.1L865 505.3L839 534.3Z" fill="#122f5e" stroke="#576CBC"></path><path d="M416 605.1L850 600L830 600Z" fill="#0b2447" stroke="#576CBC"></path><path d="M767 0L806 0L677 -4.1Z" fill="#143162" stroke="#576CBC"></path><path d="M820 80.7L806 0L779 32.9Z" fill="#0b2447" stroke="#576CBC"></path><path d="M859 65.9L820 80.7L894 120.6Z" fill="#19376d" stroke="#576CBC"></path><path d="M900 540.1L839 534.3L848 583.1Z" fill="#0b2447" stroke="#576CBC"></path><path d="M894 120.6L813 88.7L864 156.4Z" fill="#163365" stroke="#576CBC"></path><path d="M900 127.6L894 120.6L864 156.4Z" fill="#0c264b" stroke="#576CBC"></path><path d="M900 206.3L900 127.6L864 156.4Z" fill="#0d284f" stroke="#576CBC"></path><path d="M894 120.6L900 107.7L859 65.9Z" fill="#173569" stroke="#576CBC"></path><path d="M900 600L900 540.1L848 583.1Z" fill="#0c264b" stroke="#576CBC"></path><path d="M899 502.4L900 540.1L900 478.3Z" fill="#143162" stroke="#576CBC"></path><path d="M43 0L0 0L0 73.9Z" fill="#0d284f" stroke="#576CBC"></path><path d="M0 73.9L0 0L-3 410.6Z" fill="#0e2952" stroke="#576CBC"></path><path d="M677 -4.1L0 0L43 0Z" fill="#143162" stroke="#576CBC"></path><path d="M900 127.6L900 107.7L894 120.6Z" fill="#163365" stroke="#576CBC"></path><path d="M859 65.9L861 0L806 0Z" fill="#0d284f" stroke="#576CBC"></path><path d="M900 107.7L900 90.9L859 65.9Z" fill="#163365" stroke="#576CBC"></path><path d="M416 605.1L900 600L850 600Z" fill="#0c264b" stroke="#576CBC"></path><path d="M850 600L900 600L848 583.1Z" fill="#102b56" stroke="#576CBC"></path><path d="M900 0L861 0L859 65.9Z" fill="#173569" stroke="#576CBC"></path><path d="M806 0L861 0L677 -4.1Z" fill="#0b2447" stroke="#576CBC"></path><path d="M900 90.9L900 0L859 65.9Z" fill="#0b2447" stroke="#576CBC"></path><path d="M861 0L900 0L677 -4.1Z" fill="#112d5a" stroke="#576CBC"></path></g></svg>