<svg id="visual" viewBox="0 0 900 600" width="900" height="600" xmlns="http://www.w3.org/2000/svg" xmlns:xlink="http://www.w3.org/1999/xlink" version="1.1"><g stroke-width="1" stroke-linejoin="bevel"><path d="M491.3 305.7L458 364.3L507.3 347.3Z" fill="#4c4bb2" stroke="#4c4bb2"></path><path d="M458 364.3L483.3 378.8L507.3 347.3Z" fill="#5353c4" stroke="#5353c4"></path><path d="M491.3 305.7L438 364.8L458 364.3Z" fill="#5b5bd7" stroke="#5b5bd7"></path><path d="M458 364.3L448 426.4L483.3 378.8Z" fill="#2f2d6c" stroke="#2f2d6c"></path><path d="M491.3 305.7L411.8 355.3L438 364.8Z" fill="#3d3b8e" stroke="#3d3b8e"></path><path d="M491.3 305.7L470 253.7L411.8 355.3Z" fill="#14112e" stroke="#14112e"></path><path d="M507.3 347.3L547.5 283.7L491.3 305.7Z" fill="#4543a0" stroke="#4543a0"></path><path d="M491.3 305.7L547.5 283.7L470 253.7Z" fill="#28255c" stroke="#28255c"></path><path d="M377.8 382.8L448 426.4L438 364.8Z" fill="#211f4c" stroke="#211f4c"></path><path d="M438 364.8L448 426.4L458 364.3Z" fill="#5b5bd7" stroke="#5b5bd7"></path><path d="M590.5 393.8L584.8 362.3L507.3 347.3Z" fill="#14112e" stroke="#14112e"></path><path d="M356.5 364.3L377.8 382.8L411.8 355.3Z" fill="#14112e" stroke="#14112e"></path><path d="M411.8 355.3L377.8 382.8L438 364.8Z" fill="#5b5bd7" stroke="#5b5bd7"></path><path d="M456 218.2L432.8 234.7L470 253.7Z" fill="#28255c" stroke="#28255c"></path><path d="M470 253.7L366.5 309.7L411.8 355.3Z" fill="#14112e" stroke="#14112e"></path><path d="M547.5 283.7L483.3 225.2L470 253.7Z" fill="#14112e" stroke="#14112e"></path><path d="M432.8 234.7L366.5 309.7L470 253.7Z" fill="#3d3b8e" stroke="#3d3b8e"></path><path d="M537.3 445.4L507.3 347.3L483.3 378.8Z" fill="#4c4bb2" stroke="#4c4bb2"></path><path d="M507.3 347.3L584.8 362.3L547.5 283.7Z" fill="#14112e" stroke="#14112e"></path><path d="M483.3 225.2L456 218.2L470 253.7Z" fill="#211f4c" stroke="#211f4c"></path><path d="M584.8 362.3L594.8 353.8L547.5 283.7Z" fill="#14112e" stroke="#14112e"></path><path d="M366.5 309.7L356.5 364.3L411.8 355.3Z" fill="#36347d" stroke="#36347d"></path><path d="M448 426.4L537.3 445.4L483.3 378.8Z" fill="#14112e" stroke="#14112e"></path><path d="M584.8 362.3L590.5 393.8L594.8 353.8Z" fill="#36347d" stroke="#36347d"></path><path d="M537.3 445.4L590.5 393.8L507.3 347.3Z" fill="#4543a0" stroke="#4543a0"></path><path d="M646.8 248.7L602.5 301.3L669 334.3Z" fill="#1a183d" stroke="#1a183d"></path><path d="M594.8 353.8L602.5 301.3L547.5 283.7Z" fill="#5b5bd7" stroke="#5b5bd7"></path><path d="M547.5 283.7L543.5 199.6L483.3 225.2Z" fill="#5b5bd7" stroke="#5b5bd7"></path><path d="M485.3 488.9L536.5 452.9L537.3 445.4Z" fill="#4c4bb2" stroke="#4c4bb2"></path><path d="M537.3 445.4L572.5 436.4L590.5 393.8Z" fill="#4c4bb2" stroke="#4c4bb2"></path><path d="M327.5 397.8L371.8 421.4L377.8 382.8Z" fill="#4543a0" stroke="#4543a0"></path><path d="M377.8 382.8L371.8 421.4L448 426.4Z" fill="#4c4bb2" stroke="#4c4bb2"></path><path d="M448 426.4L485.3 488.9L537.3 445.4Z" fill="#4543a0" stroke="#4543a0"></path><path d="M536.5 452.9L572.5 436.4L537.3 445.4Z" fill="#1a183d" stroke="#1a183d"></path><path d="M572.5 206.2L543.5 199.6L547.5 283.7Z" fill="#5353c4" stroke="#5353c4"></path><path d="M517.3 155.6L426 174.6L456 218.2Z" fill="#1a183d" stroke="#1a183d"></path><path d="M452 507.9L485.3 488.9L448 426.4Z" fill="#211f4c" stroke="#211f4c"></path><path d="M536.5 452.9L579.8 453.4L572.5 436.4Z" fill="#4543a0" stroke="#4543a0"></path><path d="M593.8 504.9L579.8 453.4L536.5 452.9Z" fill="#5353c4" stroke="#5353c4"></path><path d="M572.5 436.4L579.8 453.4L590.5 393.8Z" fill="#2f2d6c" stroke="#2f2d6c"></path><path d="M356.5 364.3L327.5 397.8L377.8 382.8Z" fill="#4543a0" stroke="#4543a0"></path><path d="M371.8 421.4L363.5 461.9L448 426.4Z" fill="#211f4c" stroke="#211f4c"></path><path d="M310.5 395.4L327.5 397.8L356.5 364.3Z" fill="#211f4c" stroke="#211f4c"></path><path d="M602.5 301.3L572.5 206.2L547.5 283.7Z" fill="#14112e" stroke="#14112e"></path><path d="M456 218.2L426 174.6L432.8 234.7Z" fill="#28255c" stroke="#28255c"></path><path d="M432.8 234.7L360.8 210.2L366.5 309.7Z" fill="#4c4bb2" stroke="#4c4bb2"></path><path d="M257.3 356.3L310.5 395.4L356.5 364.3Z" fill="#5b5bd7" stroke="#5b5bd7"></path><path d="M517.3 155.6L456 218.2L483.3 225.2Z" fill="#1a183d" stroke="#1a183d"></path><path d="M327.5 397.8L363.5 461.9L371.8 421.4Z" fill="#2f2d6c" stroke="#2f2d6c"></path><path d="M426 174.6L360.8 210.2L432.8 234.7Z" fill="#14112e" stroke="#14112e"></path><path d="M433.8 513.9L452 507.9L448 426.4Z" fill="#5b5bd7" stroke="#5b5bd7"></path><path d="M485.3 488.9L541.5 528.5L536.5 452.9Z" fill="#211f4c" stroke="#211f4c"></path><path d="M300.3 268.7L356.5 364.3L366.5 309.7Z" fill="#4c4bb2" stroke="#4c4bb2"></path><path d="M327.5 397.8L265.3 469.4L363.5 461.9Z" fill="#5353c4" stroke="#5353c4"></path><path d="M360.8 210.2L321.5 242.2L366.5 309.7Z" fill="#3d3b8e" stroke="#3d3b8e"></path><path d="M363.5 461.9L433.8 513.9L448 426.4Z" fill="#3d3b8e" stroke="#3d3b8e"></path><path d="M599.8 190.2L517.3 155.6L543.5 199.6Z" fill="#5353c4" stroke="#5353c4"></path><path d="M543.5 199.6L517.3 155.6L483.3 225.2Z" fill="#4543a0" stroke="#4543a0"></path><path d="M321.5 242.2L300.3 268.7L366.5 309.7Z" fill="#28255c" stroke="#28255c"></path><path d="M646.8 248.7L599.8 190.2L572.5 206.2Z" fill="#1a183d" stroke="#1a183d"></path><path d="M572.5 206.2L599.8 190.2L543.5 199.6Z" fill="#1a183d" stroke="#1a183d"></path><path d="M669 334.3L602.5 301.3L594.8 353.8Z" fill="#36347d" stroke="#36347d"></path><path d="M602.5 301.3L646.8 248.7L572.5 206.2Z" fill="#211f4c" stroke="#211f4c"></path><path d="M669 334.3L594.8 353.8L669 405.4Z" fill="#5b5bd7" stroke="#5b5bd7"></path><path d="M669 405.4L594.8 353.8L590.5 393.8Z" fill="#1a183d" stroke="#1a183d"></path><path d="M454 541.5L514.3 535.5L452 507.9Z" fill="#211f4c" stroke="#211f4c"></path><path d="M452 507.9L514.3 535.5L485.3 488.9Z" fill="#4c4bb2" stroke="#4c4bb2"></path><path d="M514.3 535.5L541.5 528.5L485.3 488.9Z" fill="#5b5bd7" stroke="#5b5bd7"></path><path d="M579.8 453.4L669 405.4L590.5 393.8Z" fill="#36347d" stroke="#36347d"></path><path d="M593.8 504.9L669 405.4L579.8 453.4Z" fill="#3d3b8e" stroke="#3d3b8e"></path><path d="M541.5 528.5L593.8 504.9L536.5 452.9Z" fill="#14112e" stroke="#14112e"></path><path d="M426.8 545.5L454 541.5L433.8 513.9Z" fill="#3d3b8e" stroke="#3d3b8e"></path><path d="M433.8 513.9L454 541.5L452 507.9Z" fill="#5353c4" stroke="#5353c4"></path><path d="M360.8 210.2L310.5 199.6L321.5 242.2Z" fill="#3d3b8e" stroke="#3d3b8e"></path><path d="M321.5 242.2L262.3 198.2L300.3 268.7Z" fill="#5353c4" stroke="#5353c4"></path><path d="M316.5 148.1L310.5 199.6L360.8 210.2Z" fill="#14112e" stroke="#14112e"></path><path d="M363.5 461.9L426.8 545.5L433.8 513.9Z" fill="#14112e" stroke="#14112e"></path><path d="M454 541.5L527.3 600L514.3 535.5Z" fill="#211f4c" stroke="#211f4c"></path><path d="M296.5 541.5L426.8 545.5L363.5 461.9Z" fill="#2f2d6c" stroke="#2f2d6c"></path><path d="M300.3 268.7L257.3 356.3L356.5 364.3Z" fill="#4543a0" stroke="#4543a0"></path><path d="M310.5 395.4L265.3 469.4L327.5 397.8Z" fill="#28255c" stroke="#28255c"></path><path d="M251.3 355.8L257.3 356.3L249 308.3Z" fill="#2f2d6c" stroke="#2f2d6c"></path><path d="M669 334.3L693 288.7L646.8 248.7Z" fill="#4543a0" stroke="#4543a0"></path><path d="M701 160.6L644.8 131.6L599.8 190.2Z" fill="#4c4bb2" stroke="#4c4bb2"></path><path d="M732.3 294.7L693 288.7L669 334.3Z" fill="#4c4bb2" stroke="#4c4bb2"></path><path d="M456 88.1L393.8 128.6L426 174.6Z" fill="#36347d" stroke="#36347d"></path><path d="M426 174.6L393.8 128.6L360.8 210.2Z" fill="#36347d" stroke="#36347d"></path><path d="M249 308.3L257.3 356.3L300.3 268.7Z" fill="#36347d" stroke="#36347d"></path><path d="M254 460.9L265.3 469.4L310.5 395.4Z" fill="#211f4c" stroke="#211f4c"></path><path d="M223 272.7L249 308.3L300.3 268.7Z" fill="#2f2d6c" stroke="#2f2d6c"></path><path d="M718.3 410.8L699 403.8L737.3 436.4Z" fill="#14112e" stroke="#14112e"></path><path d="M669 405.4L699 403.8L669 334.3Z" fill="#5353c4" stroke="#5353c4"></path><path d="M570.5 77.1L514.3 99.1L517.3 155.6Z" fill="#4543a0" stroke="#4543a0"></path><path d="M517.3 155.6L456 88.1L426 174.6Z" fill="#28255c" stroke="#28255c"></path><path d="M581.8 81.5L517.3 155.6L599.8 190.2Z" fill="#4c4bb2" stroke="#4c4bb2"></path><path d="M393.8 128.6L316.5 148.1L360.8 210.2Z" fill="#5b5bd7" stroke="#5b5bd7"></path><path d="M310.5 199.6L262.3 198.2L321.5 242.2Z" fill="#211f4c" stroke="#211f4c"></path><path d="M514.3 99.1L456 88.1L517.3 155.6Z" fill="#1a183d" stroke="#1a183d"></path><path d="M393.8 128.6L346.5 78.5L316.5 148.1Z" fill="#28255c" stroke="#28255c"></path><path d="M254 460.9L310.5 395.4L214 412.4Z" fill="#4c4bb2" stroke="#4c4bb2"></path><path d="M289.3 139.6L262.3 198.2L310.5 199.6Z" fill="#36347d" stroke="#36347d"></path><path d="M737.3 436.4L699 403.8L669 405.4Z" fill="#4c4bb2" stroke="#4c4bb2"></path><path d="M751.3 343.3L732.3 294.7L669 334.3Z" fill="#3d3b8e" stroke="#3d3b8e"></path><path d="M214 412.4L310.5 395.4L257.3 356.3Z" fill="#211f4c" stroke="#211f4c"></path><path d="M214 412.4L257.3 356.3L251.3 355.8Z" fill="#28255c" stroke="#28255c"></path><path d="M732.3 232.2L710 225.2L693 288.7Z" fill="#4543a0" stroke="#4543a0"></path><path d="M693 288.7L710 225.2L646.8 248.7Z" fill="#2f2d6c" stroke="#2f2d6c"></path><path d="M223 272.7L216 344.8L249 308.3Z" fill="#3d3b8e" stroke="#3d3b8e"></path><path d="M249 308.3L216 344.8L251.3 355.8Z" fill="#36347d" stroke="#36347d"></path><path d="M751.3 343.3L669 334.3L699 403.8Z" fill="#211f4c" stroke="#211f4c"></path><path d="M262.3 198.2L223 272.7L300.3 268.7Z" fill="#3d3b8e" stroke="#3d3b8e"></path><path d="M214 412.4L249.3 468.9L254 460.9Z" fill="#4c4bb2" stroke="#4c4bb2"></path><path d="M254 460.9L249.3 468.9L265.3 469.4Z" fill="#2f2d6c" stroke="#2f2d6c"></path><path d="M378.8 600L445 600L426.8 545.5Z" fill="#5b5bd7" stroke="#5b5bd7"></path><path d="M409.8 70.5L422.8 78.1L461 30.5Z" fill="#3d3b8e" stroke="#3d3b8e"></path><path d="M456 88.1L422.8 78.1L393.8 128.6Z" fill="#2f2d6c" stroke="#2f2d6c"></path><path d="M701 160.6L599.8 190.2L646.8 248.7Z" fill="#14112e" stroke="#14112e"></path><path d="M296.5 541.5L363.5 461.9L265.3 469.4Z" fill="#3d3b8e" stroke="#3d3b8e"></path><path d="M426.8 545.5L445 600L454 541.5Z" fill="#211f4c" stroke="#211f4c"></path><path d="M514.3 535.5L527.3 600L541.5 528.5Z" fill="#14112e" stroke="#14112e"></path><path d="M585.5 600L637.8 560.5L593.8 504.9Z" fill="#211f4c" stroke="#211f4c"></path><path d="M445 600L527.3 600L454 541.5Z" fill="#1a183d" stroke="#1a183d"></path><path d="M708.3 514.9L737.3 436.4L669 405.4Z" fill="#3d3b8e" stroke="#3d3b8e"></path><path d="M316.5 148.1L289.3 139.6L310.5 199.6Z" fill="#28255c" stroke="#28255c"></path><path d="M262.3 198.2L201.8 212.2L223 272.7Z" fill="#3d3b8e" stroke="#3d3b8e"></path><path d="M346.5 78.5L289.3 139.6L316.5 148.1Z" fill="#36347d" stroke="#36347d"></path><path d="M216 344.8L214 412.4L251.3 355.8Z" fill="#2f2d6c" stroke="#2f2d6c"></path><path d="M235 544.5L296.5 541.5L265.3 469.4Z" fill="#28255c" stroke="#28255c"></path><path d="M461 30.5L422.8 78.1L456 88.1Z" fill="#1a183d" stroke="#1a183d"></path><path d="M422.8 78.1L409.8 70.5L393.8 128.6Z" fill="#28255c" stroke="#28255c"></path><path d="M525.5 66.5L456 88.1L514.3 99.1Z" fill="#2f2d6c" stroke="#2f2d6c"></path><path d="M570.5 77.1L525.5 66.5L514.3 99.1Z" fill="#5b5bd7" stroke="#5b5bd7"></path><path d="M644.8 131.6L581.8 81.5L599.8 190.2Z" fill="#28255c" stroke="#28255c"></path><path d="M581.8 81.5L570.5 77.1L517.3 155.6Z" fill="#1a183d" stroke="#1a183d"></path><path d="M718.3 410.8L751.3 343.3L699 403.8Z" fill="#28255c" stroke="#28255c"></path><path d="M732.3 294.7L732.3 232.2L693 288.7Z" fill="#211f4c" stroke="#211f4c"></path><path d="M807.5 301.7L732.3 232.2L732.3 294.7Z" fill="#28255c" stroke="#28255c"></path><path d="M710 225.2L701 160.6L646.8 248.7Z" fill="#36347d" stroke="#36347d"></path><path d="M289.3 139.6L246 181.2L262.3 198.2Z" fill="#2f2d6c" stroke="#2f2d6c"></path><path d="M585.5 600L593.8 504.9L541.5 528.5Z" fill="#4543a0" stroke="#4543a0"></path><path d="M708.3 514.9L669 405.4L593.8 504.9Z" fill="#5353c4" stroke="#5353c4"></path><path d="M718.3 410.8L737.3 436.4L751.3 343.3Z" fill="#5b5bd7" stroke="#5b5bd7"></path><path d="M361.5 600L378.8 600L426.8 545.5Z" fill="#211f4c" stroke="#211f4c"></path><path d="M346.5 78.5L275.3 134.1L289.3 139.6Z" fill="#28255c" stroke="#28255c"></path><path d="M289.3 139.6L275.3 134.1L246 181.2Z" fill="#36347d" stroke="#36347d"></path><path d="M766.5 193.2L701 160.6L710 225.2Z" fill="#14112e" stroke="#14112e"></path><path d="M644.8 131.6L651 95.1L581.8 81.5Z" fill="#211f4c" stroke="#211f4c"></path><path d="M703.3 146.6L658.8 116.1L644.8 131.6Z" fill="#5353c4" stroke="#5353c4"></path><path d="M527.3 600L585.5 600L541.5 528.5Z" fill="#2f2d6c" stroke="#2f2d6c"></path><path d="M409.8 70.5L346.5 78.5L393.8 128.6Z" fill="#5b5bd7" stroke="#5b5bd7"></path><path d="M296.5 541.5L361.5 600L426.8 545.5Z" fill="#211f4c" stroke="#211f4c"></path><path d="M705 529.9L708.3 514.9L637.8 560.5Z" fill="#4c4bb2" stroke="#4c4bb2"></path><path d="M637.8 560.5L708.3 514.9L593.8 504.9Z" fill="#4c4bb2" stroke="#4c4bb2"></path><path d="M766.5 193.2L703.3 146.6L701 160.6Z" fill="#1a183d" stroke="#1a183d"></path><path d="M701 160.6L703.3 146.6L644.8 131.6Z" fill="#36347d" stroke="#36347d"></path><path d="M658 91.5L651 95.1L658.8 116.1Z" fill="#211f4c" stroke="#211f4c"></path><path d="M658.8 116.1L651 95.1L644.8 131.6Z" fill="#1a183d" stroke="#1a183d"></path><path d="M613.8 0L544.5 0L570.5 77.1Z" fill="#4543a0" stroke="#4543a0"></path><path d="M473.3 29.5L456 88.1L525.5 66.5Z" fill="#36347d" stroke="#36347d"></path><path d="M235 544.5L300.3 576.5L296.5 541.5Z" fill="#5353c4" stroke="#5353c4"></path><path d="M296.5 541.5L300.3 576.5L361.5 600Z" fill="#2f2d6c" stroke="#2f2d6c"></path><path d="M235 544.5L265.3 469.4L249.3 468.9Z" fill="#5b5bd7" stroke="#5b5bd7"></path><path d="M217 129.6L201.8 212.2L246 181.2Z" fill="#3d3b8e" stroke="#3d3b8e"></path><path d="M246 181.2L201.8 212.2L262.3 198.2Z" fill="#4543a0" stroke="#4543a0"></path><path d="M152.8 364.3L214 412.4L216 344.8Z" fill="#28255c" stroke="#28255c"></path><path d="M167.8 414.4L196.8 479.9L214 412.4Z" fill="#4543a0" stroke="#4543a0"></path><path d="M698 559.5L705 529.9L637.8 560.5Z" fill="#1a183d" stroke="#1a183d"></path><path d="M708.3 514.9L789.5 477.9L737.3 436.4Z" fill="#36347d" stroke="#36347d"></path><path d="M739.3 82.1L658 91.5L658.8 116.1Z" fill="#36347d" stroke="#36347d"></path><path d="M651 95.1L613.8 0L581.8 81.5Z" fill="#4543a0" stroke="#4543a0"></path><path d="M473.3 29.5L461 30.5L456 88.1Z" fill="#28255c" stroke="#28255c"></path><path d="M409.8 70.5L342.5 0L346.5 78.5Z" fill="#36347d" stroke="#36347d"></path><path d="M473.3 29.5L544.5 0L475 0Z" fill="#36347d" stroke="#36347d"></path><path d="M473.3 29.5L525.5 66.5L544.5 0Z" fill="#3d3b8e" stroke="#3d3b8e"></path><path d="M822.5 381.8L789.5 337.3L751.3 343.3Z" fill="#3d3b8e" stroke="#3d3b8e"></path><path d="M751.3 343.3L789.5 337.3L732.3 294.7Z" fill="#211f4c" stroke="#211f4c"></path><path d="M732.3 232.2L766.5 193.2L710 225.2Z" fill="#211f4c" stroke="#211f4c"></path><path d="M814.8 316.3L789.5 337.3L822.5 381.8Z" fill="#3d3b8e" stroke="#3d3b8e"></path><path d="M585.5 600L644.8 600L637.8 560.5Z" fill="#3d3b8e" stroke="#3d3b8e"></path><path d="M167.8 414.4L214 412.4L151.8 389.8Z" fill="#4c4bb2" stroke="#4c4bb2"></path><path d="M214 412.4L196.8 479.9L249.3 468.9Z" fill="#4c4bb2" stroke="#4c4bb2"></path><path d="M644.8 600L646 600L637.8 560.5Z" fill="#3d3b8e" stroke="#3d3b8e"></path><path d="M646 600L698 559.5L637.8 560.5Z" fill="#4c4bb2" stroke="#4c4bb2"></path><path d="M822.5 381.8L751.3 343.3L737.3 436.4Z" fill="#36347d" stroke="#36347d"></path><path d="M152.8 364.3L216 344.8L128.5 306.3Z" fill="#1a183d" stroke="#1a183d"></path><path d="M196.8 479.9L235 544.5L249.3 468.9Z" fill="#3d3b8e" stroke="#3d3b8e"></path><path d="M795.5 195.6L766.5 193.2L732.3 232.2Z" fill="#36347d" stroke="#36347d"></path><path d="M703.3 146.6L739.3 82.1L658.8 116.1Z" fill="#36347d" stroke="#36347d"></path><path d="M128.5 306.3L216 344.8L223 272.7Z" fill="#4c4bb2" stroke="#4c4bb2"></path><path d="M152.8 364.3L151.8 389.8L214 412.4Z" fill="#28255c" stroke="#28255c"></path><path d="M164.8 600L194.8 577.5L144.5 600Z" fill="#36347d" stroke="#36347d"></path><path d="M275.3 134.1L217 129.6L246 181.2Z" fill="#4c4bb2" stroke="#4c4bb2"></path><path d="M201.8 212.2L139.8 250.7L223 272.7Z" fill="#1a183d" stroke="#1a183d"></path><path d="M224 82.1L217 129.6L275.3 134.1Z" fill="#5353c4" stroke="#5353c4"></path><path d="M296.3 38.5L275.3 134.1L346.5 78.5Z" fill="#14112e" stroke="#14112e"></path><path d="M814.8 316.3L807.5 301.7L789.5 337.3Z" fill="#36347d" stroke="#36347d"></path><path d="M789.5 337.3L807.5 301.7L732.3 294.7Z" fill="#28255c" stroke="#28255c"></path><path d="M235 544.5L269.3 600L300.3 576.5Z" fill="#28255c" stroke="#28255c"></path><path d="M300.3 576.5L269.3 600L361.5 600Z" fill="#4543a0" stroke="#4543a0"></path><path d="M473.3 29.5L466.3 0L461 30.5Z" fill="#36347d" stroke="#36347d"></path><path d="M461 30.5L407.8 0L409.8 70.5Z" fill="#4543a0" stroke="#4543a0"></path><path d="M544.5 0L525.5 66.5L570.5 77.1Z" fill="#14112e" stroke="#14112e"></path><path d="M475 0L466.3 0L473.3 29.5Z" fill="#4543a0" stroke="#4543a0"></path><path d="M789.5 477.9L708.3 514.9L746.3 565.5Z" fill="#1a183d" stroke="#1a183d"></path><path d="M807.5 301.7L795.5 195.6L732.3 232.2Z" fill="#5b5bd7" stroke="#5b5bd7"></path><path d="M466.3 0L407.8 0L461 30.5Z" fill="#36347d" stroke="#36347d"></path><path d="M613.8 0L570.5 77.1L581.8 81.5Z" fill="#5353c4" stroke="#5353c4"></path><path d="M746.3 565.5L708.3 514.9L705 529.9Z" fill="#36347d" stroke="#36347d"></path><path d="M133.8 172.6L139.8 250.7L201.8 212.2Z" fill="#14112e" stroke="#14112e"></path><path d="M152.8 364.3L95.3 402.4L151.8 389.8Z" fill="#1a183d" stroke="#1a183d"></path><path d="M342.5 0L296.3 38.5L346.5 78.5Z" fill="#28255c" stroke="#28255c"></path><path d="M646 600L701.3 600L698 559.5Z" fill="#5353c4" stroke="#5353c4"></path><path d="M698 559.5L746.3 565.5L705 529.9Z" fill="#5b5bd7" stroke="#5b5bd7"></path><path d="M139.8 250.7L128.5 306.3L223 272.7Z" fill="#211f4c" stroke="#211f4c"></path><path d="M766.5 193.2L746.5 116.1L703.3 146.6Z" fill="#5b5bd7" stroke="#5b5bd7"></path><path d="M658 91.5L613.8 0L651 95.1Z" fill="#4543a0" stroke="#4543a0"></path><path d="M802.8 132.1L746.5 116.1L766.5 193.2Z" fill="#4543a0" stroke="#4543a0"></path><path d="M836.8 228.2L795.5 195.6L807.5 301.7Z" fill="#5353c4" stroke="#5353c4"></path><path d="M802.5 466.4L822.5 381.8L737.3 436.4Z" fill="#211f4c" stroke="#211f4c"></path><path d="M832.8 473.9L802.5 466.4L789.5 477.9Z" fill="#1a183d" stroke="#1a183d"></path><path d="M789.5 477.9L802.5 466.4L737.3 436.4Z" fill="#14112e" stroke="#14112e"></path><path d="M701.3 600L746.3 565.5L698 559.5Z" fill="#3d3b8e" stroke="#3d3b8e"></path><path d="M296.3 38.5L224 82.1L275.3 134.1Z" fill="#14112e" stroke="#14112e"></path><path d="M217 129.6L133.8 172.6L201.8 212.2Z" fill="#36347d" stroke="#36347d"></path><path d="M407.8 0L342.5 0L409.8 70.5Z" fill="#36347d" stroke="#36347d"></path><path d="M296.3 38.5L193 0L224 82.1Z" fill="#36347d" stroke="#36347d"></path><path d="M690 0L613.8 0L658 91.5Z" fill="#2f2d6c" stroke="#2f2d6c"></path><path d="M795.5 72.5L739.3 82.1L746.5 116.1Z" fill="#1a183d" stroke="#1a183d"></path><path d="M746.5 116.1L739.3 82.1L703.3 146.6Z" fill="#5b5bd7" stroke="#5b5bd7"></path><path d="M196.8 479.9L194.8 577.5L235 544.5Z" fill="#2f2d6c" stroke="#2f2d6c"></path><path d="M235 544.5L207 600L269.3 600Z" fill="#1a183d" stroke="#1a183d"></path><path d="M82.5 481.9L196.8 479.9L167.8 414.4Z" fill="#14112e" stroke="#14112e"></path><path d="M95.3 402.4L167.8 414.4L151.8 389.8Z" fill="#2f2d6c" stroke="#2f2d6c"></path><path d="M342.5 0L311.3 0L296.3 38.5Z" fill="#1a183d" stroke="#1a183d"></path><path d="M858.8 278.7L836.8 228.2L807.5 301.7Z" fill="#5b5bd7" stroke="#5b5bd7"></path><path d="M795.5 195.6L802.8 132.1L766.5 193.2Z" fill="#5b5bd7" stroke="#5b5bd7"></path><path d="M858.8 278.7L807.5 301.7L814.8 316.3Z" fill="#211f4c" stroke="#211f4c"></path><path d="M194.8 577.5L207 600L235 544.5Z" fill="#5b5bd7" stroke="#5b5bd7"></path><path d="M150.8 90.1L184 94.5L144.5 37.5Z" fill="#4c4bb2" stroke="#4c4bb2"></path><path d="M224 82.1L184 94.5L217 129.6Z" fill="#5b5bd7" stroke="#5b5bd7"></path><path d="M184 94.5L133.8 172.6L217 129.6Z" fill="#1a183d" stroke="#1a183d"></path><path d="M139.8 250.7L93.5 292.7L128.5 306.3Z" fill="#5353c4" stroke="#5353c4"></path><path d="M797.5 578.5L832.8 473.9L789.5 477.9Z" fill="#4543a0" stroke="#4543a0"></path><path d="M802.5 466.4L848.8 428.4L822.5 381.8Z" fill="#28255c" stroke="#28255c"></path><path d="M900 303.3L858.8 278.7L814.8 316.3Z" fill="#28255c" stroke="#28255c"></path><path d="M832.8 473.9L848.8 428.4L802.5 466.4Z" fill="#1a183d" stroke="#1a183d"></path><path d="M52.3 247.7L93.5 292.7L139.8 250.7Z" fill="#1a183d" stroke="#1a183d"></path><path d="M128.5 306.3L91.3 306.3L152.8 364.3Z" fill="#36347d" stroke="#36347d"></path><path d="M853.8 134.6L802.8 132.1L795.5 195.6Z" fill="#211f4c" stroke="#211f4c"></path><path d="M93.5 292.7L91.3 306.3L128.5 306.3Z" fill="#14112e" stroke="#14112e"></path><path d="M91.3 306.3L95.3 402.4L152.8 364.3Z" fill="#1a183d" stroke="#1a183d"></path><path d="M194.8 577.5L164.8 600L207 600Z" fill="#2f2d6c" stroke="#2f2d6c"></path><path d="M876.8 378.8L814.8 316.3L822.5 381.8Z" fill="#28255c" stroke="#28255c"></path><path d="M853.8 134.6L795.5 72.5L802.8 132.1Z" fill="#28255c" stroke="#28255c"></path><path d="M795.5 72.5L737.3 40.5L739.3 82.1Z" fill="#3d3b8e" stroke="#3d3b8e"></path><path d="M739.3 82.1L737.3 40.5L658 91.5Z" fill="#14112e" stroke="#14112e"></path><path d="M737.3 40.5L690 0L658 91.5Z" fill="#5b5bd7" stroke="#5b5bd7"></path><path d="M701.3 600L797.5 578.5L746.3 565.5Z" fill="#211f4c" stroke="#211f4c"></path><path d="M746.3 565.5L797.5 578.5L789.5 477.9Z" fill="#4c4bb2" stroke="#4c4bb2"></path><path d="M900 359.8L876.8 378.8L900 468.4Z" fill="#14112e" stroke="#14112e"></path><path d="M848.8 428.4L876.8 378.8L822.5 381.8Z" fill="#2f2d6c" stroke="#2f2d6c"></path><path d="M876.8 378.8L848.8 428.4L900 468.4Z" fill="#36347d" stroke="#36347d"></path><path d="M184 94.5L150.8 90.1L133.8 172.6Z" fill="#28255c" stroke="#28255c"></path><path d="M133.8 172.6L82.5 177.2L139.8 250.7Z" fill="#4543a0" stroke="#4543a0"></path><path d="M152.8 29.5L184 94.5L224 82.1Z" fill="#36347d" stroke="#36347d"></path><path d="M150.8 90.1L108.5 158.6L133.8 172.6Z" fill="#5b5bd7" stroke="#5b5bd7"></path><path d="M93.5 292.7L52.3 247.7L91.3 306.3Z" fill="#4543a0" stroke="#4543a0"></path><path d="M144.5 600L194.8 577.5L196.8 479.9Z" fill="#2f2d6c" stroke="#2f2d6c"></path><path d="M27.3 372.8L74.5 414.8L95.3 402.4Z" fill="#5353c4" stroke="#5353c4"></path><path d="M95.3 402.4L76.5 428.4L167.8 414.4Z" fill="#3d3b8e" stroke="#3d3b8e"></path><path d="M27.3 372.8L95.3 402.4L91.3 306.3Z" fill="#211f4c" stroke="#211f4c"></path><path d="M74.5 414.8L76.5 428.4L95.3 402.4Z" fill="#36347d" stroke="#36347d"></path><path d="M802.8 132.1L795.5 72.5L746.5 116.1Z" fill="#36347d" stroke="#36347d"></path><path d="M737.3 40.5L720.3 0L690 0Z" fill="#3d3b8e" stroke="#3d3b8e"></path><path d="M853.8 134.6L795.5 195.6L836.8 228.2Z" fill="#4543a0" stroke="#4543a0"></path><path d="M801.5 0L720.3 0L737.3 40.5Z" fill="#1a183d" stroke="#1a183d"></path><path d="M76.5 428.4L82.5 481.9L167.8 414.4Z" fill="#4c4bb2" stroke="#4c4bb2"></path><path d="M59.3 510.9L82.5 481.9L57.3 509.5Z" fill="#28255c" stroke="#28255c"></path><path d="M82.5 481.9L144.5 600L196.8 479.9Z" fill="#28255c" stroke="#28255c"></path><path d="M91.5 133.1L82.5 177.2L108.5 158.6Z" fill="#2f2d6c" stroke="#2f2d6c"></path><path d="M108.5 158.6L82.5 177.2L133.8 172.6Z" fill="#5b5bd7" stroke="#5b5bd7"></path><path d="M876.8 378.8L900 359.8L814.8 316.3Z" fill="#1a183d" stroke="#1a183d"></path><path d="M858.8 278.7L900 275.7L836.8 228.2Z" fill="#2f2d6c" stroke="#2f2d6c"></path><path d="M900 468.4L848.8 428.4L832.8 473.9Z" fill="#28255c" stroke="#28255c"></path><path d="M900 359.8L900 303.3L814.8 316.3Z" fill="#5353c4" stroke="#5353c4"></path><path d="M900 201.2L853.8 134.6L836.8 228.2Z" fill="#28255c" stroke="#28255c"></path><path d="M900 303.3L900 275.7L858.8 278.7Z" fill="#3d3b8e" stroke="#3d3b8e"></path><path d="M56.3 201.2L52.3 247.7L139.8 250.7Z" fill="#5b5bd7" stroke="#5b5bd7"></path><path d="M74.5 414.8L0 463.4L76.5 428.4Z" fill="#2f2d6c" stroke="#2f2d6c"></path><path d="M150.8 90.1L91.5 133.1L108.5 158.6Z" fill="#36347d" stroke="#36347d"></path><path d="M82.5 177.2L56.3 201.2L139.8 250.7Z" fill="#36347d" stroke="#36347d"></path><path d="M826.5 600L835.8 578.5L797.5 578.5Z" fill="#2f2d6c" stroke="#2f2d6c"></path><path d="M797.5 578.5L835.8 578.5L832.8 473.9Z" fill="#4543a0" stroke="#4543a0"></path><path d="M311.3 0L193 0L296.3 38.5Z" fill="#36347d" stroke="#36347d"></path><path d="M150.8 90.1L44.3 77.1L91.5 133.1Z" fill="#36347d" stroke="#36347d"></path><path d="M701.3 600L826.5 600L797.5 578.5Z" fill="#211f4c" stroke="#211f4c"></path><path d="M29.3 172.6L56.3 201.2L82.5 177.2Z" fill="#36347d" stroke="#36347d"></path><path d="M900 479.9L832.8 473.9L900 540.5Z" fill="#5b5bd7" stroke="#5b5bd7"></path><path d="M900 479.9L900 468.4L832.8 473.9Z" fill="#14112e" stroke="#14112e"></path><path d="M193 0L152.8 29.5L224 82.1Z" fill="#5b5bd7" stroke="#5b5bd7"></path><path d="M900 275.7L900 201.2L836.8 228.2Z" fill="#211f4c" stroke="#211f4c"></path><path d="M193 0L182.8 0L152.8 29.5Z" fill="#4c4bb2" stroke="#4c4bb2"></path><path d="M148.5 0L144.5 37.5L152.8 29.5Z" fill="#3d3b8e" stroke="#3d3b8e"></path><path d="M152.8 29.5L144.5 37.5L184 94.5Z" fill="#4c4bb2" stroke="#4c4bb2"></path><path d="M900 540.5L832.8 473.9L835.8 578.5Z" fill="#5b5bd7" stroke="#5b5bd7"></path><path d="M0 347.8L91.3 306.3L52.3 247.7Z" fill="#5b5bd7" stroke="#5b5bd7"></path><path d="M0 347.8L27.3 372.8L91.3 306.3Z" fill="#211f4c" stroke="#211f4c"></path><path d="M57.3 509.5L82.5 481.9L0 463.4Z" fill="#28255c" stroke="#28255c"></path><path d="M82.5 481.9L79.5 569.5L144.5 600Z" fill="#2f2d6c" stroke="#2f2d6c"></path><path d="M0 463.4L82.5 481.9L76.5 428.4Z" fill="#4543a0" stroke="#4543a0"></path><path d="M59.3 510.9L79.5 569.5L82.5 481.9Z" fill="#4c4bb2" stroke="#4c4bb2"></path><path d="M0 571.5L79.5 569.5L59.3 510.9Z" fill="#14112e" stroke="#14112e"></path><path d="M900 201.2L900 156.6L853.8 134.6Z" fill="#211f4c" stroke="#211f4c"></path><path d="M861.8 0L801.5 0L795.5 72.5Z" fill="#4c4bb2" stroke="#4c4bb2"></path><path d="M795.5 72.5L801.5 0L737.3 40.5Z" fill="#211f4c" stroke="#211f4c"></path><path d="M874.8 63.5L795.5 72.5L853.8 134.6Z" fill="#3d3b8e" stroke="#3d3b8e"></path><path d="M182.8 0L148.5 0L152.8 29.5Z" fill="#2f2d6c" stroke="#2f2d6c"></path><path d="M0 144.6L29.3 172.6L91.5 133.1Z" fill="#2f2d6c" stroke="#2f2d6c"></path><path d="M91.5 133.1L29.3 172.6L82.5 177.2Z" fill="#211f4c" stroke="#211f4c"></path><path d="M878.8 600L900 540.5L835.8 578.5Z" fill="#36347d" stroke="#36347d"></path><path d="M44.3 77.1L150.8 90.1L144.5 37.5Z" fill="#36347d" stroke="#36347d"></path><path d="M0 216.2L0 244.7L52.3 247.7Z" fill="#3d3b8e" stroke="#3d3b8e"></path><path d="M0 244.7L0 347.8L52.3 247.7Z" fill="#211f4c" stroke="#211f4c"></path><path d="M27.3 372.8L0 463.4L74.5 414.8Z" fill="#36347d" stroke="#36347d"></path><path d="M0 347.8L0 351.3L27.3 372.8Z" fill="#2f2d6c" stroke="#2f2d6c"></path><path d="M900 156.6L900 107.1L853.8 134.6Z" fill="#1a183d" stroke="#1a183d"></path><path d="M826.5 600L878.8 600L835.8 578.5Z" fill="#4c4bb2" stroke="#4c4bb2"></path><path d="M0 571.5L59.3 510.9L57.3 509.5Z" fill="#2f2d6c" stroke="#2f2d6c"></path><path d="M0 571.5L72.3 600L79.5 569.5Z" fill="#5353c4" stroke="#5353c4"></path><path d="M79.5 569.5L72.3 600L144.5 600Z" fill="#4543a0" stroke="#4543a0"></path><path d="M900 107.1L874.8 63.5L853.8 134.6Z" fill="#2f2d6c" stroke="#2f2d6c"></path><path d="M0 216.2L52.3 247.7L56.3 201.2Z" fill="#36347d" stroke="#36347d"></path><path d="M29.3 172.6L0 216.2L56.3 201.2Z" fill="#1a183d" stroke="#1a183d"></path><path d="M0 351.3L0 463.4L27.3 372.8Z" fill="#2f2d6c" stroke="#2f2d6c"></path><path d="M878.8 600L900 600L900 540.5Z" fill="#36347d" stroke="#36347d"></path><path d="M900 107.1L900 70.5L874.8 63.5Z" fill="#1a183d" stroke="#1a183d"></path><path d="M874.8 63.5L861.8 0L795.5 72.5Z" fill="#3d3b8e" stroke="#3d3b8e"></path><path d="M0 463.4L0 494.9L57.3 509.5Z" fill="#4c4bb2" stroke="#4c4bb2"></path><path d="M43.3 34.5L44.3 77.1L144.5 37.5Z" fill="#36347d" stroke="#36347d"></path><path d="M29.3 172.6L0 144.6L0 216.2Z" fill="#5b5bd7" stroke="#5b5bd7"></path><path d="M900 0L861.8 0L874.8 63.5Z" fill="#2f2d6c" stroke="#2f2d6c"></path><path d="M44.3 77.1L0 144.6L91.5 133.1Z" fill="#28255c" stroke="#28255c"></path><path d="M62.3 0L43.3 34.5L144.5 37.5Z" fill="#1a183d" stroke="#1a183d"></path><path d="M44.3 77.1L0 75.1L0 144.6Z" fill="#3d3b8e" stroke="#3d3b8e"></path><path d="M0 494.9L0 571.5L57.3 509.5Z" fill="#28255c" stroke="#28255c"></path><path d="M148.5 0L62.3 0L144.5 37.5Z" fill="#14112e" stroke="#14112e"></path><path d="M900 70.5L900 0L874.8 63.5Z" fill="#14112e" stroke="#14112e"></path><path d="M0 37.5L44.3 77.1L43.3 34.5Z" fill="#1a183d" stroke="#1a183d"></path><path d="M0 37.5L0 75.1L44.3 77.1Z" fill="#4c4bb2" stroke="#4c4bb2"></path><path d="M0 571.5L0 600L72.3 600Z" fill="#14112e" stroke="#14112e"></path><path d="M0 0L0 37.5L43.3 34.5Z" fill="#211f4c" stroke="#211f4c"></path><path d="M62.3 0L0 0L43.3 34.5Z" fill="#1a183d" stroke="#1a183d"></path></g></svg>